<svg xmlns="http://www.w3.org/2000/svg" version="1.1" xmlns:xlink="http://www.w3.org/1999/xlink" width="1024" height="1024"><svg version="1.1" xmlns="http://www.w3.org/2000/svg" width="1024" height="1024">
<path d="M0 0 C337.92 0 675.84 0 1024 0 C1024 337.92 1024 675.84 1024 1024 C686.08 1024 348.16 1024 0 1024 C0 686.08 0 348.16 0 0 Z " fill="#F7F4F0" transform="translate(0,0)"></path>
<path d="M0 0 C4.06309966 2.55096272 7.47178727 5.76423271 11 9 C12.99129651 10.74105337 14.98683323 12.47225426 17 14.1875 C17.8031665 14.87223389 17.8031665 14.87223389 18.62255859 15.57080078 C39.76890705 33.37217033 63.32480779 48.81405487 87 63 C87.91168945 63.54785156 88.82337891 64.09570312 89.76269531 64.66015625 C106.576218 74.74242168 123.663904 84.23357464 140.9375 93.5 C141.539039 93.82312164 142.140578 94.14624329 142.76034546 94.47915649 C148.7596554 97.70026183 154.76606098 100.90110196 160.84375 103.97265625 C161.71394775 104.41609375 162.58414551 104.85953125 163.48071289 105.31640625 C165.05726567 106.11604109 166.63940337 106.90481161 168.22827148 107.6796875 C173.86915288 110.54936933 177.9228778 113.76863339 180 120 C180.44453809 126.77920584 179.51962913 130.76047684 175.25 136.25 C171.57610113 139.1074769 167.6862579 139.70022082 163.1875 140.5 C154.97243287 139.21136202 147.39413932 132.2662699 140.75 127.5 C130.95884634 120.56953704 120.94455467 114.05344157 110.7578125 107.72119141 C107.95251815 105.97036588 105.16400457 104.19459962 102.375 102.41796875 C100.58420539 101.29808346 98.79257206 100.17953796 97 99.0625 C96.18144531 98.53575684 95.36289062 98.00901367 94.51953125 97.46630859 C91.1192307 95.37956636 88.7449453 94.0677223 84.734375 93.703125 C80.59915714 95.66439976 79.30649248 98.72436534 77.25 102.6875 C76.38397729 104.25021687 75.51278417 105.81007841 74.63671875 107.3671875 C74.1989209 108.14932617 73.76112305 108.93146484 73.31005859 109.73730469 C67.5545186 119.6781069 58.7832972 133.77939227 48.55078125 139.328125 C44.51051062 140.39233105 41.25064408 140.53120809 37.36401367 138.88037109 C36.47431885 138.35008301 35.58462402 137.81979492 34.66796875 137.2734375 C33.63808838 136.66443604 32.60820801 136.05543457 31.54711914 135.42797852 C30.43844482 134.75049561 29.32977051 134.0730127 28.1875 133.375 C27.01106226 132.66645919 25.83454671 131.95804757 24.65795898 131.24975586 C14.79894616 125.26978764 5.15938812 118.95225611 -4.4375 112.5625 C-5.12824615 112.10309021 -5.81899231 111.64368042 -6.53067017 111.17034912 C-27.68366947 97.06456838 -49.32483659 81.41162855 -67 63 C-65.66363695 60.05104918 -64.17858069 57.90299881 -61.9453125 55.56640625 C-61.33623047 54.92380859 -60.72714844 54.28121094 -60.09960938 53.61914062 C-59.44798828 52.94044922 -58.79636719 52.26175781 -58.125 51.5625 C-56.76261592 50.12668618 -55.40064227 48.69048282 -54.0390625 47.25390625 C-53.35875977 46.5386377 -52.67845703 45.82336914 -51.97753906 45.08642578 C-43.81953474 36.47922764 -35.80602571 27.74179447 -28.19140625 18.6484375 C-10.51106653 -2.37245298 -10.51106653 -2.37245298 0 0 Z " fill="#811E26" transform="translate(745,294)"></path>
<path d="M0 0 C11.88 0 23.76 0 36 0 C37.63729623 6.3818512 39.27352708 12.76395804 40.90722656 19.14672852 C41.46131975 21.31029227 42.01599042 23.47370822 42.57128906 25.63696289 C45.37423315 36.55781995 48.15384629 47.47811304 50.69873047 58.46231079 C52.12288996 64.59257484 53.73862292 70.660305 55.41796875 76.72460938 C55.62550781 77.49224609 55.83304688 78.25988281 56.046875 79.05078125 C56.23088867 79.71762939 56.41490234 80.38447754 56.60449219 81.0715332 C57 83 57 83 57 87 C57.66 87 58.32 87 59 87 C59.13728516 85.46859375 59.13728516 85.46859375 59.27734375 83.90625 C60.10724665 77.3132127 61.91523775 70.92579732 63.5625 64.5 C63.9200874 63.09070067 64.27717471 61.68127438 64.63378906 60.27172852 C65.3772347 57.33449159 66.12284182 54.39781477 66.86962891 51.46142578 C67.98192298 47.0803247 69.07739134 42.69514469 70.16796875 38.30859375 C70.34360855 37.60268097 70.51924835 36.89676819 70.70021057 36.16946411 C71.53731823 32.80457249 72.37365247 29.43949117 73.20922852 26.07421875 C75.38387064 17.35512936 77.68385987 8.6855255 80 0 C91.55 0 103.1 0 115 0 C115 45.54 115 91.08 115 138 C106.75 138 98.5 138 90 138 C89.67 110.61 89.34 83.22 89 55 C85.64667408 68.20456425 85.64667408 68.20456425 82.30029297 81.41088867 C78.12797876 97.82389464 73.53925659 114.1061948 68.625 130.3125 C68.36589844 131.17166016 68.10679687 132.03082031 67.83984375 132.91601562 C67.22792252 134.9444212 66.61419598 136.97228206 66 139 C60.39 139 54.78 139 49 139 C46.68460847 133.08383885 44.82302943 127.15204366 43.14453125 121.02734375 C42.74653572 119.58978477 42.74653572 119.58978477 42.34049988 118.1231842 C41.77821429 116.08887587 41.21772882 114.05406922 40.65893555 112.01879883 C39.83650889 109.02490013 39.00765203 106.03284517 38.17773438 103.04101562 C33.59033605 86.40426718 29.3139471 69.71654502 25 53 C24.67 81.05 24.34 109.1 24 138 C16.08 138 8.16 138 0 138 C0 92.46 0 46.92 0 0 Z " fill="#811E26" transform="translate(509,445)"></path>
<path d="M0 0 C0.95583984 -0.020625 1.91167969 -0.04125 2.89648438 -0.0625 C14.16634945 -0.12395802 23.76329038 3.56554039 32.32421875 10.99609375 C40.02608327 19.03209556 43.41676606 29.60263386 43.47363281 40.52197266 C43.48108017 41.61066147 43.48108017 41.61066147 43.48867798 42.72134399 C43.50326266 45.11892657 43.51009711 47.51644287 43.515625 49.9140625 C43.52138158 51.58832805 43.52713925 53.26259359 43.53289795 54.93685913 C43.54339889 58.44895737 43.5492468 61.9610328 43.55273438 65.47314453 C43.5582027 69.95170588 43.58219878 74.42996069 43.61070633 78.90842628 C43.62942796 82.36934254 43.63454345 85.83018655 43.63607025 89.29114914 C43.63907827 90.9408065 43.64704352 92.59046315 43.66025543 94.24007034 C43.7642237 108.22496228 42.33794293 120.55992411 32.42578125 131.29296875 C21.14335066 141.68876433 8.51722863 142.93101271 -6.24609375 142.6171875 C-16.83825844 142.1035176 -24.91185259 138.2279508 -32.52734375 130.7734375 C-42.53802831 119.0792201 -42.99671084 106.33236971 -42.953125 91.71875 C-42.95447499 90.11649517 -42.95641829 88.51424074 -42.95892334 86.9119873 C-42.96185891 83.56677317 -42.9576277 80.22166642 -42.94824219 76.87646484 C-42.93684858 72.60986531 -42.94341649 68.3435175 -42.95538712 64.07692719 C-42.96264823 60.7721775 -42.96029836 57.46748653 -42.95513153 54.16273499 C-42.95380677 52.59041819 -42.95540114 51.01809589 -42.96009064 49.44578552 C-42.99442156 34.70344597 -41.41147232 21.49047429 -30.984375 10.140625 C-21.68930926 2.4895845 -11.68739741 0.06179721 0 0 Z " fill="#811E26" transform="translate(348.6875,442.75)"></path>
<path d="M0 0 C0.9384375 -0.01611328 1.876875 -0.03222656 2.84375 -0.04882812 C14.62374485 -0.05696348 24.12242095 3.50342453 32.875 11.375 C40.16413202 18.96505948 43.40200356 28.40819712 43.39526367 38.69213867 C43.39862228 39.42929108 43.4019809 40.16644348 43.40544128 40.92593384 C43.41493214 43.36079602 43.41689377 45.79558923 43.41796875 48.23046875 C43.42118373 49.92955046 43.42454798 51.62863188 43.42805481 53.32771301 C43.4340422 56.89108928 43.43589522 60.45444132 43.43530273 64.01782227 C43.43520139 68.56591499 43.44882699 73.11385065 43.46607494 77.66190624 C43.47724141 81.17339276 43.47922048 84.68484193 43.47869301 88.19634438 C43.47986715 89.87193656 43.4842569 91.54752989 43.49202538 93.22310448 C43.55382266 107.93481457 42.48026485 120.79052167 32 132.1875 C21.60857982 141.77427481 8.81663691 142.88069606 -4.625 142.625 C-15.00238107 142.17380952 -23.98027243 137.78601388 -31.5 130.65234375 C-39.06549808 122.34920961 -42.05524882 112.52686717 -42.04052734 101.40283203 C-42.04724457 100.65694824 -42.05396179 99.91106445 -42.06088257 99.14257812 C-42.07972215 96.70175326 -42.08377936 94.26120533 -42.0859375 91.8203125 C-42.09237443 90.10692232 -42.09910344 88.39353321 -42.10610962 86.68014526 C-42.11804674 83.09777276 -42.12179405 79.51549644 -42.12060547 75.93310547 C-42.12040231 71.36485641 -42.14771724 66.79722962 -42.18214989 62.22912788 C-42.20449165 58.69271057 -42.20844082 55.15644142 -42.20738602 51.61996078 C-42.20973054 49.93680551 -42.21848858 48.25364542 -42.23405075 46.57056046 C-42.31003537 37.50549711 -42.21915957 29.48324114 -37.75 21.3125 C-37.26917969 20.41015625 -36.78835937 19.5078125 -36.29296875 18.578125 C-31.13550802 10.9088174 -25.33045091 5.84090972 -16.75 2.3125 C-15.90050781 1.95285156 -15.05101562 1.59320313 -14.17578125 1.22265625 C-9.42163341 -0.04041838 -4.89803895 -0.01654743 0 0 Z " fill="#811F27" transform="translate(247.75,442.6875)"></path>
<path d="M0 0 C60.64095745 0 60.64095745 0 72.875 11.25 C83.18194003 22.52089845 83.3171325 36.81945467 83.30078125 51.30859375 C83.30468066 52.76628234 83.30901782 54.22396981 83.31376648 55.68165588 C83.3211777 58.71985578 83.32097447 61.75793936 83.31567383 64.79614258 C83.30988057 68.65668532 83.32683141 72.51674806 83.3500185 76.37721157 C83.36486948 79.38270266 83.36561234 82.38808108 83.36250877 85.39360237 C83.36301612 86.81552138 83.36814125 88.2374477 83.37832069 89.65933037 C83.4673018 103.82046232 81.74316789 116.42614743 71.9609375 127.2578125 C53.0362321 145.3800569 23.63555926 138 0 138 C0 92.46 0 46.92 0 0 Z " fill="#811E26" transform="translate(408,445)"></path>
<path d="M0 0 C4.57932748 3.34416943 7.44295028 7.32528033 10.0625 12.3125 C10.4028125 12.95445312 10.743125 13.59640625 11.09375 14.2578125 C14.38382058 22.02603471 13.2449948 31.10023398 13.0625 39.3125 C3.8225 39.3125 -5.4175 39.3125 -14.9375 39.3125 C-15.75 32.125 -15.75 32.125 -15.98364258 29.88989258 C-16.5027027 25.68919291 -17.40174018 22.70826814 -19.9375 19.3125 C-23.03744892 17.41808677 -24.84525048 17.30926317 -28.5 17.4375 C-32.37684212 18.42433254 -33.58860756 19.12471741 -35.9375 22.3125 C-38.39527802 27.27632761 -39.31668135 30.87429604 -39.34155273 36.49780273 C-39.35184761 37.51881577 -39.35184761 37.51881577 -39.36235046 38.56045532 C-39.38050919 40.78921944 -39.37679699 43.01727223 -39.37109375 45.24609375 C-39.37566085 46.80876389 -39.38096799 48.37143203 -39.38697815 49.93409729 C-39.39588779 53.20134669 -39.39351082 56.46835138 -39.38354492 59.7355957 C-39.37205824 63.90617748 -39.39227232 68.07591215 -39.42146206 72.24638271 C-39.43987801 75.47135207 -39.43952093 78.69612044 -39.43382454 81.92112923 C-39.43367198 83.45800019 -39.43966185 84.99488535 -39.45211601 86.53170586 C-39.55881066 98.01503833 -39.55881066 98.01503833 -34.9375 108.3125 C-31.99374442 110.92917163 -29.70563149 111.48996846 -25.875 111.625 C-21.55369837 111.28921524 -21.55369837 111.28921524 -17.9375 109.3125 C-16.84844989 107.25173893 -16.84844989 107.25173893 -16.25 104.875 C-16.01925781 104.09253906 -15.78851563 103.31007813 -15.55078125 102.50390625 C-15.34839844 101.78074219 -15.14601562 101.05757812 -14.9375 100.3125 C-14.4425 98.8275 -14.4425 98.8275 -13.9375 97.3125 C-13.79257877 95.90585074 -13.69121069 94.4943867 -13.62109375 93.08203125 C-13.55825195 91.87836914 -13.55825195 91.87836914 -13.49414062 90.65039062 C-13.45482422 89.81701172 -13.41550781 88.98363281 -13.375 88.125 C-13.33181641 87.28001953 -13.28863281 86.43503906 -13.24414062 85.56445312 C-13.13818482 83.48065567 -13.0373498 81.39659897 -12.9375 79.3125 C-17.2275 79.3125 -21.5175 79.3125 -25.9375 79.3125 C-25.9375 72.0525 -25.9375 64.7925 -25.9375 57.3125 C-13.0675 57.3125 -0.1975 57.3125 13.0625 57.3125 C13.13162441 64.25054255 13.19128395 71.1873749 13.22729492 78.12548828 C13.24231778 80.48230046 13.26274196 82.83908498 13.28881836 85.19580078 C13.32548821 88.59674942 13.34229196 91.99732621 13.35546875 95.3984375 C13.37095261 96.44051361 13.38643646 97.48258972 13.40238953 98.5562439 C13.40474841 108.96941938 11.34921761 117.61082125 4.0625 125.3125 C-5.76051321 134.80588189 -17.48658351 135.90188413 -30.56323242 135.78515625 C-37.63817401 135.5718356 -43.6872979 134.85097421 -49.9375 131.3125 C-50.74058594 130.88839844 -51.54367188 130.46429687 -52.37109375 130.02734375 C-60.38367867 125.3039973 -64.8994952 117.94682943 -67.9375 109.3125 C-68.77320522 104.5015709 -69.06786426 99.86979383 -69.08276367 94.99121094 C-69.08612228 94.29584732 -69.0894809 93.6004837 -69.09294128 92.88404846 C-69.10237214 90.60497202 -69.10439054 88.32596969 -69.10546875 86.046875 C-69.10868727 84.44655325 -69.11205178 82.84623179 -69.11555481 81.24591064 C-69.12152679 77.89716918 -69.12339675 74.54845344 -69.12280273 71.19970703 C-69.12270133 66.93550716 -69.1363394 62.67147462 -69.15357494 58.4073143 C-69.16476468 55.10249086 -69.1667198 51.79770695 -69.16619301 48.49286652 C-69.16736318 46.92219721 -69.17173004 45.35152655 -69.17952538 43.78087616 C-69.24558597 29.0938444 -68.77226439 15.25949041 -58.1875 4 C-42.66377019 -10.47127355 -17.77064854 -10.56235567 0 0 Z " fill="#801D25" transform="translate(177.9375,449.6875)"></path>
<path d="M0 0 C10.23 0 20.46 0 31 0 C34.82856415 15.91515231 38.62488028 31.83722095 42.38143921 47.76950073 C46.9555661 67.16550976 51.55211167 86.55603794 56.1875 105.9375 C56.41956146 106.90835541 56.65162292 107.87921082 56.89071655 108.87948608 C57.54508427 111.61640388 58.20011571 114.35316174 58.85546875 117.08984375 C59.13898193 118.27522736 59.13898193 118.27522736 59.42822266 119.48455811 C59.69614624 120.60196381 59.69614624 120.60196381 59.96948242 121.74194336 C60.13910492 122.45164276 60.30872742 123.16134216 60.48348999 123.89254761 C60.83525774 125.32782238 61.20042064 126.75986515 61.57730103 128.18875122 C62.47807309 131.61581292 63 134.42710586 63 138 C53.76 138 44.52 138 35 138 C34.175 134.638125 33.35 131.27625 32.5 127.8125 C32.23896484 126.76167236 31.97792969 125.71084473 31.70898438 124.62817383 C31.50595703 123.78794678 31.30292969 122.94771973 31.09375 122.08203125 C30.88427734 121.22843018 30.67480469 120.3748291 30.45898438 119.49536133 C30 117 30 117 30 112 C20.43 112 10.86 112 1 112 C0.34 116.62 -0.32 121.24 -1 126 C-2.485 132.435 -2.485 132.435 -4 139 C-13.24 139 -22.48 139 -32 139 C-29.52425487 126.26106202 -26.81111193 113.63598361 -23.73928833 101.02914429 C-22.53540019 96.08553236 -21.34580175 91.13848425 -20.15625 86.19140625 C-19.90424332 85.1439473 -19.65223663 84.09648834 -19.39259338 83.01728821 C-14.84198857 64.05564777 -10.49045223 45.04658908 -6.0973053 26.04800415 C-4.08700891 17.36003752 -2.04989385 8.67870721 0 0 Z " fill="#811E26" transform="translate(750,445)"></path>
<path d="M0 0 C21.78 0 43.56 0 66 0 C66 7.92 66 15.84 66 24 C53.79 24 41.58 24 29 24 C29 34.89 29 45.78 29 57 C39.56 57 50.12 57 61 57 C61 64.92 61 72.84 61 81 C50.44 81 39.88 81 29 81 C29 91.89 29 102.78 29 114 C41.54 114 54.08 114 67 114 C67 122.25 67 130.5 67 139 C44.89 139 22.78 139 0 139 C0 93.13 0 47.26 0 0 Z " fill="#821F27" transform="translate(642,445)"></path>
<path d="M0 0 C26.07 0 52.14 0 79 0 C79 8.25 79 16.5 79 25 C70.75 25 62.5 25 54 25 C54 62.29 54 99.58 54 138 C44.76 138 35.52 138 26 138 C26 100.38 26 62.76 26 24 C17.42 24 8.84 24 0 24 C0 16.08 0 8.16 0 0 Z " fill="#801E25" transform="translate(807,445)"></path>
<path d="M0 0 C4.48035444 2.19944673 6.86312614 4.50131818 9 9 C10.14756121 12.55176456 10.15279619 15.9443032 10.19287109 19.66113281 C10.20104858 20.32186295 10.20922607 20.98259308 10.21765137 21.66334534 C10.24239963 23.84326291 10.25899493 26.02311579 10.2734375 28.203125 C10.27876118 28.95071831 10.28408485 29.69831161 10.28956985 30.46855927 C10.31625681 34.42645744 10.335645 38.38432458 10.35009766 42.34228516 C10.3634269 45.60721921 10.39126597 48.8715268 10.43212891 52.13623047 C10.48160145 56.08963651 10.50623606 60.04247534 10.51332474 63.99617767 C10.52001165 65.49681549 10.53516677 66.99744191 10.55921555 68.49790192 C10.79334666 83.9908209 10.79334666 83.9908209 5 90 C0.8475675 92.76828833 -4.16309174 92.40601785 -9 92 C-13.92693026 90.88024312 -16.13344896 88.0609473 -19 84 C-20.06407776 80.13407518 -20.14294623 76.40467371 -20.17700195 72.40893555 C-20.18983719 71.09374435 -20.20267242 69.77855316 -20.21589661 68.42350769 C-20.22406489 66.99458191 -20.23150845 65.56565183 -20.23828125 64.13671875 C-20.24235678 63.41210764 -20.2464323 62.68749653 -20.25063133 61.94092751 C-20.27143904 58.10621049 -20.28576416 54.27152871 -20.29516602 50.43676758 C-20.30622623 46.49263562 -20.34063622 42.54906844 -20.38033772 38.60513592 C-20.40657474 35.55692042 -20.41486402 32.50883825 -20.41844749 29.46051979 C-20.4232943 28.00735467 -20.43485355 26.55419473 -20.45348549 25.10114098 C-20.54880603 17.17557983 -20.52456574 10.77883825 -16 4 C-11.21483996 -0.55729528 -6.31812071 -1.01706333 0 0 Z " fill="#F6F3EF" transform="translate(354,468)"></path>
<path d="M0 0 C4.36412109 2.2628776 7.97041068 4.89569296 9.56414795 9.70095825 C10.14286336 12.75357872 10.14369112 15.6770373 10.16113281 18.78466797 C10.16609772 19.45836426 10.17106262 20.13206055 10.17617798 20.82617188 C10.19074681 23.04818759 10.19759239 25.27013193 10.203125 27.4921875 C10.20888036 29.04151409 10.21463804 30.59084067 10.22039795 32.14016724 C10.23089261 35.3865797 10.23674545 38.6329675 10.24023438 41.87939453 C10.24571897 46.03102675 10.2697525 50.182331 10.29820633 54.3338604 C10.31686559 57.53383323 10.32204003 60.73372752 10.32357025 63.93375015 C10.32658938 65.46390706 10.33459291 66.99406283 10.34775543 68.52416611 C10.36488708 70.6685431 10.362919 72.81212456 10.35644531 74.95654297 C10.36009094 76.17469696 10.36373657 77.39285095 10.36749268 78.6479187 C9.81631797 83.67545404 8.14921185 86.90824874 4.5 90.375 C-0.39357936 92.64701899 -4.68925859 92.67296418 -10 92 C-13.78986889 90.42088796 -15.83327915 88.46675336 -18 85 C-19.1579304 81.52620879 -19.14122491 78.79529683 -19.16113281 75.12939453 C-19.16609772 74.43473083 -19.17106262 73.74006714 -19.17617798 73.02435303 C-19.19077829 70.72716276 -19.19759784 68.43004154 -19.203125 66.1328125 C-19.20887799 64.53482054 -19.21463571 62.9368286 -19.22039795 61.33883667 C-19.23090172 57.98809488 -19.23674854 54.63737703 -19.24023438 51.28662109 C-19.24571933 46.99698284 -19.2697498 42.70766196 -19.29820633 38.41812325 C-19.31684645 35.11696451 -19.32203902 31.81588205 -19.32357025 28.51467514 C-19.32659397 26.93345275 -19.33461304 25.35223161 -19.34775543 23.77106094 C-19.36484597 21.55692762 -19.36292884 19.34356739 -19.35644531 17.12939453 C-19.36009094 15.87047394 -19.36373657 14.61155334 -19.36749268 13.31448364 C-18.82555439 8.4266431 -17.08204448 5.95008784 -13.4375 2.75 C-9.0013705 -0.43491349 -5.37058729 -0.66002167 0 0 Z " fill="#F6F3EF" transform="translate(253,468)"></path>
<path d="M0 0 C16.24137931 0 16.24137931 0 21 3 C25.9753351 7.9753351 27.23830775 13.42177414 27.30639648 20.30566406 C27.32238388 21.53424133 27.33837128 22.7628186 27.35484314 24.02862549 C27.36288719 26.00219025 27.36288719 26.00219025 27.37109375 28.015625 C27.38007494 29.39556976 27.38919702 30.7755136 27.39845276 32.15545654 C27.41489973 35.04360305 27.42263468 37.93163426 27.42553711 40.81982422 C27.43090916 44.49602788 27.46855665 48.17112659 27.51428127 51.8470192 C27.54422993 54.69718239 27.55126452 57.54708552 27.55226326 60.39739227 C27.55844114 62.40356701 27.58781879 64.40962791 27.61778259 66.41558838 C27.58001411 74.12861873 26.87099773 80.73604905 22 87 C15.56527906 91.40644073 7.394072 90 0 90 C0 60.3 0 30.6 0 0 Z " fill="#F6F3F0" transform="translate(436,469)"></path>
<path d="M0 0 C4.92662692 3.50548454 9.45376494 7.2538328 13.875 11.375 C19.05441344 16.19138555 24.41736664 20.65340423 30 25 C31.02351562 25.81855469 32.04703125 26.63710938 33.1015625 27.48046875 C51.14054891 41.88684206 70.14025609 54.74845605 89.6875 67 C90.74018066 67.65983887 91.79286133 68.31967773 92.87744141 68.99951172 C93.87050293 69.61842285 94.86356445 70.23733398 95.88671875 70.875 C96.77576904 71.42929687 97.66481934 71.98359375 98.58081055 72.5546875 C100.68398085 73.81119857 102.79163448 74.94249996 105 76 C103.125 79.875 103.125 79.875 102 81 C96.4606826 81.69450656 92.92426831 79.65451843 88.375 76.8125 C87.6435376 76.3683374 86.9120752 75.9241748 86.15844727 75.46655273 C76.97799825 69.84537647 67.96335797 63.95946198 59 58 C58.30551758 57.54012695 57.61103516 57.08025391 56.89550781 56.60644531 C40.161614 45.48075643 24.09489403 33.26584699 9 20 C7.58074219 18.76443359 7.58074219 18.76443359 6.1328125 17.50390625 C2.02060863 13.87443935 -1.64923421 10.3613142 -5 6 C-3.35 4.02 -1.7 2.04 0 0 Z " fill="#F3F0EC" transform="translate(691,346)"></path>
<path d="M0 0 C3.87856725 1.36342648 6.44599875 4.14090566 9.375 6.9375 C15.92894688 13.06822153 22.86218973 18.56931461 30 24 C30.76940918 24.58861816 31.53881836 25.17723633 32.33154297 25.78369141 C42.97819696 33.91611487 53.71558626 41.77694702 65 49 C66.28922363 49.82612793 66.28922363 49.82612793 67.60449219 50.66894531 C73.15089031 54.21764318 78.70811682 57.74897554 84.27148438 61.27099609 C88.85211786 64.17364878 93.42594963 67.08698838 98 70 C97.34 71.65 96.68 73.3 96 75 C99.63 75 103.26 75 107 75 C106.67 75.66 106.34 76.32 106 77 C100.07703413 78.60818233 96.78687196 78.29214981 91.375 75.37109375 C89.23395441 74.0862635 87.10982209 72.77298334 85 71.4375 C83.83793468 70.72326312 82.67507125 70.01032339 81.51147461 69.29858398 C54.13411866 52.41639907 27.93906962 34.17524239 3.48046875 13.26464844 C2.15666459 12.13382628 0.82861259 11.00798128 -0.5 9.8828125 C-1.20125 9.28210938 -1.9025 8.68140625 -2.625 8.0625 C-3.21539063 7.55847656 -3.80578125 7.05445313 -4.4140625 6.53515625 C-6.17706179 4.82860768 -7.57778935 2.99540464 -9 1 C-6.53199953 2.15173355 -4.95216435 3.04783565 -3 5 C-2.814375 4.0409375 -2.814375 4.0409375 -2.625 3.0625 C-2.41875 2.381875 -2.2125 1.70125 -2 1 C-1.34 0.67 -0.68 0.34 0 0 Z " fill="#7B1E24" transform="translate(688,356)"></path>
<path d="M0 0 C20.21052632 0 20.21052632 0 27 5.375 C30.52294082 10.11192718 29.64437112 16.44141394 29 22 C27.40238632 26.79284104 25.21932884 29.25253005 21 32 C15 34 15 34 0 34 C0 22.78 0 11.56 0 0 Z " fill="#831C24" transform="translate(387,623)"></path>
<path d="M0 0 C19.81305638 0 19.81305638 0 25 4 C28.42772804 7.54042047 29.24619078 11.15840502 29.4375 16 C29.16912853 21.88628101 27.9645075 26.08719006 23.625 30.3125 C15.3056015 35.66068475 11.42400821 34 0 34 C0 22.78 0 11.56 0 0 Z " fill="#912E37" transform="translate(289,623)"></path>
<path d="M0 0 C1.98 0 3.96 0 6 0 C8.64031672 6.53792711 10.38808348 13.14078075 12 20 C14.34880326 16.4767951 15.37398842 12.88843081 16.5625 8.875 C18.87360595 1.12639405 18.87360595 1.12639405 20 0 C21.98 0 23.96 0 26 0 C28.64 7.26 31.28 14.52 34 22 C35.60441041 15.13482919 35.60441041 15.13482919 37.20092773 8.26782227 C37.40145752 7.41760498 37.6019873 6.5673877 37.80859375 5.69140625 C38.01282959 4.81685791 38.21706543 3.94230957 38.42749023 3.04125977 C39 1 39 1 40 0 C42.33297433 -0.04092937 44.66705225 -0.04241723 47 0 C45.66615537 7.53272849 43.70061079 14.75988477 41.4375 22.0625 C41.12103516 23.10599609 40.80457031 24.14949219 40.47851562 25.22460938 C38.13375235 32.86624765 38.13375235 32.86624765 37 34 C35.00041636 34.04080783 32.99954746 34.04254356 31 34 C24 17.29949239 24 17.29949239 24 11 C23.34 11 22.68 11 22 11 C21.773125 12.19625 21.54625 13.3925 21.3125 14.625 C19.85180653 21.2887476 17.37759517 27.62042213 15 34 C12.69 34 10.38 34 8 34 C6.83905544 30.21279714 5.69909322 26.41957541 4.5625 22.625 C4.23701172 21.56410156 3.91152344 20.50320313 3.57617188 19.41015625 C1.64631504 12.92424565 0.36269236 6.76331293 0 0 Z " fill="#8A252E" transform="translate(437,623)"></path>
<path d="M0 0 C7 0 7 0 8.84863281 1.48120117 C9.29561523 2.16158447 9.74259766 2.84196777 10.203125 3.54296875 C10.7084375 4.28740234 11.21375 5.03183594 11.734375 5.79882812 C12.48460937 6.9812207 12.48460937 6.9812207 13.25 8.1875 C13.765625 8.95642578 14.28125 9.72535156 14.8125 10.51757812 C17.32241771 14.28568913 19.66927915 18.11546526 22 22 C22.33 14.74 22.66 7.48 23 0 C24.98 0 26.96 0 29 0 C29 11.22 29 22.44 29 34 C23 34 23 34 20.91015625 32.1640625 C20.30042969 31.32617188 19.69070313 30.48828125 19.0625 29.625 C18.39347656 28.72265625 17.72445312 27.8203125 17.03515625 26.890625 C16.36355469 25.93671875 15.69195313 24.9828125 15 24 C14.31808594 23.04609375 13.63617187 22.0921875 12.93359375 21.109375 C11.26816472 18.75422284 9.63127197 16.37893828 8 14 C7.67 20.6 7.34 27.2 7 34 C4.69 34 2.38 34 0 34 C0 22.78 0 11.56 0 0 Z " fill="#861F26" transform="translate(754,623)"></path>
<path d="M0 0 C7 0 7 0 8.97216797 1.58886719 C9.47377441 2.31750977 9.97538086 3.04615234 10.4921875 3.796875 C11.05164063 4.5909375 11.61109375 5.385 12.1875 6.203125 C13.0228125 7.46382812 13.0228125 7.46382812 13.875 8.75 C14.45507812 9.575 15.03515625 10.4 15.6328125 11.25 C20.2104077 17.88109586 20.2104077 17.88109586 21 22 C21.66 22 22.32 22 23 22 C23 14.74 23 7.48 23 0 C24.98 0 26.96 0 29 0 C29 11.22 29 22.44 29 34 C27.02 34 25.04 34 23 34 C20.98211536 31.98211536 19.52691813 30.25191588 17.9375 27.9375 C17.52951172 27.37611328 17.12152344 26.81472656 16.70117188 26.23632812 C15.92232448 25.15972233 15.15094151 24.07763832 14.39038086 22.98803711 C12.28355643 19.97559262 10.13667547 16.99134566 8 14 C7.67 20.6 7.34 27.2 7 34 C4.69 34 2.38 34 0 34 C0 22.78 0 11.56 0 0 Z " fill="#7E1C21" transform="translate(249,623)"></path>
<path d="M0 0 C2.64 0 5.28 0 8 0 C9.7154487 4.35743741 11.42425649 8.71739779 13.12695312 13.07983398 C13.70716309 14.56362037 14.28918376 16.04670004 14.87304688 17.52905273 C15.71180241 19.65946325 16.54402056 21.79232763 17.375 23.92578125 C17.63748535 24.58838455 17.8999707 25.25098785 18.17041016 25.93367004 C19.27483362 28.78572234 20 30.91109914 20 34 C17.69 34 15.38 34 13 34 C12.34 31.69 11.68 29.38 11 27 C6.05 27 1.1 27 -4 27 C-4.33 29.31 -4.66 31.62 -5 34 C-7.31 34 -9.62 34 -12 34 C-11.4527205 29.07993007 -10.39643358 24.97534045 -8.49609375 20.41015625 C-7.75649414 18.61674805 -7.75649414 18.61674805 -7.00195312 16.78710938 C-6.48064396 15.54549934 -5.95915741 14.30396376 -5.4375 13.0625 C-4.91137137 11.79392562 -4.38597393 10.52504772 -3.86132812 9.25585938 C-2.58136823 6.16751577 -1.29407557 3.08244924 0 0 Z " fill="#8A262E" transform="translate(222,623)"></path>
<path d="M0 0 C2.31 0 4.62 0 7 0 C7 4.29 7 8.58 7 13 C11.95 13 16.9 13 22 13 C22 8.71 22 4.42 22 0 C24.31 0 26.62 0 29 0 C29 11.22 29 22.44 29 34 C26.69 34 24.38 34 22 34 C22 29.38 22 24.76 22 20 C17.05 20 12.1 20 7 20 C7 24.62 7 29.24 7 34 C4.69 34 2.38 34 0 34 C0 22.78 0 11.56 0 0 Z " fill="#862028" transform="translate(173,623)"></path>
<path d="M0 0 C2.31 0 4.62 0 7 0 C7 4.29 7 8.58 7 13 C11.95 13 16.9 13 22 13 C22 8.71 22 4.42 22 0 C24.31 0 26.62 0 29 0 C29 11.22 29 22.44 29 34 C26.69 34 24.38 34 22 34 C22 29.38 22 24.76 22 20 C17.05 20 12.1 20 7 20 C7 24.62 7 29.24 7 34 C4.69 34 2.38 34 0 34 C0 22.78 0 11.56 0 0 Z " fill="#8B282F" transform="translate(593,623)"></path>
<path d="M0 0 C0.639375 0.474375 1.27875 0.94875 1.9375 1.4375 C1.6075 2.7575 1.2775 4.0775 0.9375 5.4375 C-2.07281744 6.37173645 -2.92900268 6.48199911 -6.0625 5.4375 C-11.14504039 4.91492476 -11.14504039 4.91492476 -15.4375 7.3125 C-18.35784166 11.13140833 -18.30241375 13.63922509 -18.0625 18.4375 C-17.15135464 21.75936171 -17.15135464 21.75936171 -16.0625 24.4375 C-14.27093648 24.60527183 -12.4792455 24.77168294 -10.6875 24.9375 C-9.19089844 25.07671875 -9.19089844 25.07671875 -7.6640625 25.21875 C-5.16546264 25.46542947 -5.16546264 25.46542947 -3.0625 25.4375 C-3.0625 23.4575 -3.0625 21.4775 -3.0625 19.4375 C-5.3725 19.4375 -7.6825 19.4375 -10.0625 19.4375 C-10.0625 17.4575 -10.0625 15.4775 -10.0625 13.4375 C-5.7725 13.4375 -1.4825 13.4375 2.9375 13.4375 C2.9375 18.7175 2.9375 23.9975 2.9375 29.4375 C-3.69078759 32.75164379 -7.84018533 33.33036857 -15.0625 32.4375 C-20.08041684 30.01814724 -23.56208655 26.4383269 -26.0625 21.4375 C-26.81508735 14.44918886 -26.74174315 8.77830564 -22.4921875 2.9921875 C-16.47165558 -3.55472972 -7.61637438 -3.8859053 0 0 Z " fill="#89242B" transform="translate(691.0625,624.5625)"></path>
<path d="M0 0 C2.31 0 4.62 0 7 0 C7 4.29 7 8.58 7 13 C11.62 13 16.24 13 21 13 C21 8.71 21 4.42 21 0 C23.31 0 25.62 0 28 0 C28 11.22 28 22.44 28 34 C26.02 34 24.04 34 22 34 C22 29.38 22 24.76 22 20 C17.05 20 12.1 20 7 20 C7 24.62 7 29.24 7 34 C4.69 34 2.38 34 0 34 C0 22.78 0 11.56 0 0 Z " fill="#90373D" transform="translate(540,623)"></path>
<path d="M0 0 C0.33 0 0.66 0 1 0 C2.28554578 6.78028948 3.56686165 13.56136836 4.84521484 20.34301758 C5.28075951 22.6508197 5.71727862 24.95843814 6.15478516 27.26586914 C6.78282759 30.57911339 7.40738324 33.89299855 8.03125 37.20703125 C8.22811401 38.2414888 8.42497803 39.27594635 8.62780762 40.3417511 C8.80799438 41.3025206 8.98818115 42.2632901 9.17382812 43.25317383 C9.33371216 44.09922684 9.49359619 44.94527985 9.6583252 45.81697083 C10 48 10 48 10 51 C3.73 51 -2.54 51 -9 51 C-7.87478724 40.87308518 -7.87478724 40.87308518 -7.25976562 37.44580078 C-7.12292358 36.67535431 -6.98608154 35.90490784 -6.84509277 35.1111145 C-6.70027466 34.31389984 -6.55545654 33.51668518 -6.40625 32.6953125 C-6.25466431 31.8495163 -6.10307861 31.00372009 -5.94689941 30.1322937 C-5.6289639 28.36235039 -5.30957108 26.59266828 -4.98876953 24.82324219 C-4.4976502 22.11202797 -4.01218014 19.39984405 -3.52734375 16.6875 C-3.2164785 14.96087757 -2.9052921 13.23431293 -2.59375 11.5078125 C-2.44893188 10.69845245 -2.30411377 9.88909241 -2.15490723 9.0552063 C-1.59012922 5.95345778 -0.99845225 2.99535674 0 0 Z " fill="#F5F2EF" transform="translate(765,483)"></path>
<path d="M0 0 C7.26 0 14.52 0 22 0 C22 1.98 22 3.96 22 6 C17.05 6 12.1 6 7 6 C7 8.64 7 11.28 7 14 C11.29 14 15.58 14 20 14 C20 15.98 20 17.96 20 20 C15.71 20 11.42 20 7 20 C7 22.64 7 25.28 7 28 C11.95 28 16.9 28 22 28 C22 29.98 22 31.96 22 34 C14.74 34 7.48 34 0 34 C0 22.78 0 11.56 0 0 Z " fill="#811B21" transform="translate(721,623)"></path>
<path d="M0 0 C7.26 0 14.52 0 22 0 C22 1.98 22 3.96 22 6 C17.05 6 12.1 6 7 6 C7 8.64 7 11.28 7 14 C11.29 14 15.58 14 20 14 C20 15.98 20 17.96 20 20 C15.71 20 11.42 20 7 20 C7 22.64 7 25.28 7 28 C11.95 28 16.9 28 22 28 C22 29.98 22 31.96 22 34 C14.74 34 7.48 34 0 34 C0 22.78 0 11.56 0 0 Z " fill="#7D1B20" transform="translate(793,623)"></path>
<path d="M0 0 C6.93 0 13.86 0 21 0 C21 1.98 21 3.96 21 6 C16.05 6 11.1 6 6 6 C6 8.64 6 11.28 6 14 C10.29 14 14.58 14 19 14 C19 15.98 19 17.96 19 20 C14.71 20 10.42 20 6 20 C6 22.64 6 25.28 6 28 C10.95 28 15.9 28 21 28 C21 29.98 21 31.96 21 34 C14.07 34 7.14 34 0 34 C0 22.78 0 11.56 0 0 Z " fill="#831C23" transform="translate(355,623)"></path>
<path d="M0 0 C0.66 0 1.32 0 2 0 C2 44.88 2 89.76 2 136 C22.79 136 43.58 136 65 136 C65 128.41 65 120.82 65 113 C65.66 113 66.32 113 67 113 C67 121.25 67 129.5 67 138 C44.89 138 22.78 138 0 138 C0 92.46 0 46.92 0 0 Z " fill="#752526" transform="translate(642,446)"></path>
<path d="M0 0 C2.64 0 5.28 0 8 0 C8.49371094 0.92683594 8.98742187 1.85367188 9.49609375 2.80859375 C10.14313499 4.01827955 10.79027554 5.22791222 11.4375 6.4375 C11.76298828 7.04916016 12.08847656 7.66082031 12.42382812 8.29101562 C13.93715142 11.33716206 13.93715142 11.33716206 16 14 C18.64 9.38 21.28 4.76 24 0 C26.31 0 28.62 0 31 0 C29.80190918 4.28824858 28.11304795 7.55089638 25.67358398 11.20288086 C20.67647482 18.72075179 18.6109288 24.77123102 19 34 C16.69 34 14.38 34 12 34 C12.05542969 33.28199219 12.11085938 32.56398438 12.16796875 31.82421875 C12.23767109 20.63002272 6.91635412 12.92312657 0.99389648 3.76489258 C0 2 0 2 0 0 Z " fill="#87252B" transform="translate(629,623)"></path>
<path d="M0 0 C8.91 0 17.82 0 27 0 C27 1.98 27 3.96 27 6 C23.7 6 20.4 6 17 6 C17 15.24 17 24.48 17 34 C14.69 34 12.38 34 10 34 C10 24.76 10 15.52 10 6 C6.7 6 3.4 6 0 6 C0 4.02 0 2.04 0 0 Z " fill="#88222B" transform="translate(506,623)"></path>
<path d="M0 0 C1.98 0 3.96 0 6 0 C6 9.24 6 18.48 6 28 C10.62 28 15.24 28 20 28 C20 29.98 20 31.96 20 34 C13.4 34 6.8 34 0 34 C0 22.78 0 11.56 0 0 Z " fill="#832027" transform="translate(327,623)"></path>
<path d="M0 0 C10 1 10 1 13.125 2.9375 C15.72887076 7.19048891 15.95157388 11.12318385 15 16 C12.79021693 19.54434306 11.05596972 20.89382644 7 22 C4.69 22 2.38 22 0 22 C0 14.74 0 7.48 0 0 Z " fill="#F5EFEC" transform="translate(394,629)"></path>
<path d="M0 0 C10 1 10 1 12.5625 2.9375 C15.51191975 7.16927616 15.73420287 10.93924448 15 16 C13.125 19 13.125 19 10 21 C5.05 21.495 5.05 21.495 0 22 C0 14.74 0 7.48 0 0 Z " fill="#F4EFEC" transform="translate(296,629)"></path>
<path d="M0 0 C2.54605366 2.54605366 4.03304177 4.09037853 4.14453125 7.76953125 C3.0460567 20.4258685 3.0460567 20.4258685 -2.625 25.4375 C-3.7696875 26.241875 -3.7696875 26.241875 -4.9375 27.0625 C-5.5975 26.7325 -6.2575 26.4025 -6.9375 26.0625 C-5.9475 25.4025 -4.9575 24.7425 -3.9375 24.0625 C-1.85202046 21.28694617 -1.85202046 21.28694617 -0.9375 18.0625 C-1.2675 17.4025 -1.5975 16.7425 -1.9375 16.0625 C-2.16985944 13.79484399 -2.31851703 11.52888586 -2.4609375 9.25390625 C-3.03739821 6.60313202 -3.79219483 5.68788415 -5.9375 4.0625 C-9.04589021 3.3355774 -9.04589021 3.3355774 -11.9375 3.0625 C-11.9375 2.7325 -11.9375 2.4025 -11.9375 2.0625 C-14.2475 2.0625 -16.5575 2.0625 -18.9375 2.0625 C-19.2675 8.9925 -19.5975 15.9225 -19.9375 23.0625 C-20.9275 22.7325 -21.9175 22.4025 -22.9375 22.0625 C-22.9375 13.8125 -22.9375 5.5625 -22.9375 -2.9375 C-6.69265464 -4.41430412 -6.69265464 -4.41430412 0 0 Z " fill="#902B34" transform="translate(411.9375,626.9375)"></path>
<path d="M0 0 C2.07135507 2.58141848 1.99765847 5.40799224 2.30078125 8.62109375 C1.64078125 8.29109375 0.98078125 7.96109375 0.30078125 7.62109375 C-0.35921875 8.28109375 -1.01921875 8.94109375 -1.69921875 9.62109375 C-1.90546875 8.67234375 -2.11171875 7.72359375 -2.32421875 6.74609375 C-3.38726655 3.42785053 -3.38726655 3.42785053 -6.32421875 2.30859375 C-10.08024576 1.54347714 -13.89565542 1.09653917 -17.69921875 0.62109375 C-17.69921875 8.21109375 -17.69921875 15.80109375 -17.69921875 23.62109375 C-18.68921875 22.96109375 -19.67921875 22.30109375 -20.69921875 21.62109375 C-21.35921875 23.93109375 -22.01921875 26.24109375 -22.69921875 28.62109375 C-23.02921875 28.62109375 -23.35921875 28.62109375 -23.69921875 28.62109375 C-23.69921875 18.06109375 -23.69921875 7.50109375 -23.69921875 -3.37890625 C-5.85526971 -4.75151771 -5.85526971 -4.75151771 0 0 Z " fill="#95363E" transform="translate(313.69921875,627.37890625)"></path>
<path d="M0 0 C1.98 0 3.96 0 6 0 C6 4.62 6 9.24 6 14 C10.95 14 15.9 14 21 14 C21 14.33 21 14.66 21 15 C17.37 15.33 13.74 15.66 10 16 C10 16.33 10 16.66 10 17 C13.96 17.33 17.92 17.66 22 18 C22 18.33 22 18.66 22 19 C16.72 19.33 11.44 19.66 6 20 C6 24.62 6 29.24 6 34 C4.02 34 2.04 34 0 34 C0 22.78 0 11.56 0 0 Z " fill="#7F1820" transform="translate(540,623)"></path>
<path d="M0 0 C0.99 0 1.98 0 3 0 C3 0.66 3 1.32 3 2 C4.32 2.33 5.64 2.66 7 3 C7.12117187 3.58007812 7.24234375 4.16015625 7.3671875 4.7578125 C8.13926288 8.35687156 8.93961267 11.82219285 10.125 15.3125 C11 18 11 18 11 22 C6.71 22 2.42 22 -2 22 C-2 21.34 -2 20.68 -2 20 C-3.98 20.99 -3.98 20.99 -6 22 C-7.13702419 18.66472903 -6.88480118 16.91003798 -5.56640625 13.671875 C-5.24736328 12.87265625 -4.92832031 12.0734375 -4.59960938 11.25 C-4.25736328 10.425 -3.91511719 9.6 -3.5625 8.75 C-3.22412109 7.90953125 -2.88574219 7.0690625 -2.53710938 6.203125 C-1.70126562 4.13117428 -0.85533351 2.06396385 0 0 Z " fill="#913037" transform="translate(220,627)"></path>
<path d="M0 0 C2.31 0 4.62 0 7 0 C7 11.22 7 22.44 7 34 C4.69 34 2.38 34 0 34 C0 22.78 0 11.56 0 0 Z " fill="#821D21" transform="translate(704,623)"></path>
<path d="M0 0 C4.0318506 1.3439502 5.32041925 2.42675465 7.375 6.125 C7.99695931 9.85675586 7.62919769 11.61660462 5.9375 15 C2.675984 17.70467181 0.64544173 17.80125161 -3.49609375 17.53515625 C-5.625 17.125 -5.625 17.125 -8.1875 15.625 C-10.20464187 12.11692717 -10.62807438 8.99947049 -9.625 5.125 C-6.50390461 1.39491039 -4.89475778 0.16878475 0 0 Z " fill="#F4F1EE" transform="translate(741.625,309.875)"></path>
<path d="M0 0 C1.98 0 3.96 0 6 0 C6 11.22 6 22.44 6 34 C4.02 34 2.04 34 0 34 C0 22.78 0 11.56 0 0 Z " fill="#842028" transform="translate(492,623)"></path>
<path d="M0 0 C0.99 0.33 1.98 0.66 3 1 C3 23.11 3 45.22 3 68 C2.01 68.495 2.01 68.495 1 69 C-0.41697193 66.16605613 -0.11945929 63.79126262 -0.11352539 60.62255859 C-0.11367142 59.96877731 -0.11381744 59.31499603 -0.1139679 58.6414032 C-0.11327036 56.47704773 -0.1054854 54.31277796 -0.09765625 52.1484375 C-0.09579151 50.64913988 -0.09436787 49.14984166 -0.09336853 47.65054321 C-0.08954779 43.70168378 -0.07972128 39.75286104 -0.06866455 35.80401611 C-0.05844091 31.77559913 -0.05386887 27.74717622 -0.04882812 23.71875 C-0.03809862 15.81248315 -0.0210275 7.90624614 0 0 Z " fill="#F2ECE9" transform="translate(334,480)"></path>
<path d="M0 0 C6.27 0 12.54 0 19 0 C19 1.32 19 2.64 19 4 C17.41058594 4.09087891 17.41058594 4.09087891 15.7890625 4.18359375 C14.40102779 4.26800127 13.01300768 4.35264917 11.625 4.4375 C10.92632813 4.47681641 10.22765625 4.51613281 9.5078125 4.55664062 C5.62639508 4.74280134 5.62639508 4.74280134 2 6 C2 12.27 2 18.54 2 25 C2.66 25.33 3.32 25.66 4 26 C4 26.66 4 27.32 4 28 C8.95 28 13.9 28 19 28 C19 29.32 19 30.64 19 32 C12.73 32 6.46 32 0 32 C0 21.44 0 10.88 0 0 Z " fill="#93303B" transform="translate(795,624)"></path>
<path d="M0 0 C1.32 0 2.64 0 4 0 C4 10.56 4 21.12 4 32 C-1 31 -1 31 -3.3125 28.8125 C-5.29584573 25.50692379 -5.15780944 23.78742655 -5 20 C-5.91257306 17.21433941 -5.91257306 17.21433941 -7 15 C-5.62437146 16.28965176 -4.29233607 17.62689293 -3 19 C-3 19.66 -3 20.32 -3 21 C-2.01 21 -1.02 21 0 21 C0 14.07 0 7.14 0 0 Z " fill="#8F2B34" transform="translate(273,624)"></path>
<path d="M0 0 C5 1 5 1 6.80078125 3.06640625 C7.29964844 3.89011719 7.79851562 4.71382812 8.3125 5.5625 C8.82425781 6.38878906 9.33601563 7.21507812 9.86328125 8.06640625 C10.23839844 8.70449219 10.61351562 9.34257813 11 10 C10.01 10.495 10.01 10.495 9 11 C8.67 11.66 8.34 12.32 8 13 C7.01 12.67 6.02 12.34 5 12 C4.67 18.6 4.34 25.2 4 32 C2.68 32 1.36 32 0 32 C0 21.44 0 10.88 0 0 Z " fill="#912D37" transform="translate(251,624)"></path>
<path d="M0 0 C1.32 0 2.64 0 4 0 C4.66 0.66 5.32 1.32 6 2 C6.639375 2.556875 7.27875 3.11375 7.9375 3.6875 C10.48662239 6.54560692 11.61923604 9.44946411 13 13 C13.33 13.66 13.66 14.32 14 15 C12.68 15.33 11.36 15.66 10 16 C9.566875 15.195625 9.13375 14.39125 8.6875 13.5625 C7.19525998 10.72153646 7.19525998 10.72153646 4 10 C3.67 17.26 3.34 24.52 3 32 C2.01 32 1.02 32 0 32 C0 21.44 0 10.88 0 0 Z " fill="#902D37" transform="translate(756,624)"></path>
<path d="M0 0 C4.62 0 9.24 0 14 0 C14 0.33 14 0.66 14 1 C9.71 1 5.42 1 1 1 C1.33 9.58 1.66 18.16 2 27 C4.0140956 23.9788566 4.26836596 23.19339983 4.4140625 19.76953125 C4.47207031 18.56586914 4.47207031 18.56586914 4.53125 17.33789062 C4.57765625 16.08782227 4.57765625 16.08782227 4.625 14.8125 C4.68300781 13.5450293 4.68300781 13.5450293 4.7421875 12.25195312 C4.83636279 10.16832476 4.91926675 8.08419247 5 6 C5.33 6 5.66 6 6 6 C6 13.26 6 20.52 6 28 C8.64 28 11.28 28 14 28 C14 28.99 14 29.98 14 31 C18.3890815 30.48964169 21.33708062 29.47785723 25 27 C24.4375 28.8125 24.4375 28.8125 23 31 C16 34 16 34 0 34 C0 22.78 0 11.56 0 0 Z " fill="#7A151C" transform="translate(289,623)"></path>
<path d="M0 0 C5.625 -0.25 5.625 -0.25 9 2 C9.29201724 4.60115556 9.3962335 6.96091152 9.36328125 9.5625 C9.36377975 10.30959229 9.36427826 11.05668457 9.36479187 11.82641602 C9.36245023 13.40676532 9.35271631 14.98711827 9.33618164 16.56738281 C9.31259178 18.99057251 9.3156191 21.41266222 9.32226562 23.8359375 C9.31668886 25.36979825 9.30957899 26.90365435 9.30078125 28.4375 C9.30214836 29.52816772 9.30214836 29.52816772 9.30354309 30.64086914 C9.23102983 35.76897017 9.23102983 35.76897017 7 38 C3.375 38.125 3.375 38.125 0 38 C0.33 37.34 0.66 36.68 1 36 C2.65 36 4.3 36 6 36 C6 24.78 6 13.56 6 2 C3.69 2 1.38 2 -1 2 C-0.67 1.34 -0.34 0.68 0 0 Z " fill="#F0E5E3" transform="translate(492,621)"></path>
<path d="M0 0 C1.98 0 3.96 0 6 0 C11.44607843 13.8627451 11.44607843 13.8627451 11 21 C9.45428722 18.68143083 8.20381448 16.49361571 7 14 C6.855625 14.5775 6.71125 15.155 6.5625 15.75 C6.04166667 17.83333333 5.52083333 19.91666667 5 22 C4.15820605 19.27318889 3.32636931 16.54398557 2.5 13.8125 C2.26152344 13.04357422 2.02304687 12.27464844 1.77734375 11.48242188 C0.59786383 7.55643872 -0.3326262 4.14951179 0 0 Z " fill="#801E24" transform="translate(437,623)"></path>
<path d="M0 0 C3.5581296 0.58511464 5.28778845 1.91247335 7.875 4.375 C11.11003725 7.32530551 13.98359003 9.29302576 18 11 C17.67 12.98 17.34 14.96 17 17 C12.89059241 17 11.65945214 15.32222047 8.5625 12.6875 C5.42792877 10.03910717 2.31442679 7.42117702 -1 5 C-0.67 3.35 -0.34 1.7 0 0 Z " fill="#85232B" transform="translate(689,360)"></path>
<path d="M0 0 C5.94 0 11.88 0 18 0 C18 1.32 18 2.64 18 4 C11.565 4.495 11.565 4.495 5 5 C4.67 7.31 4.34 9.62 4 12 C3.67 12 3.34 12 3 12 C3 10.35 3 8.7 3 7 C2.34 7 1.68 7 1 7 C1 14.26 1 21.52 1 29 C0.67 29 0.34 29 0 29 C0 19.43 0 9.86 0 0 Z " fill="#932E38" transform="translate(723,624)"></path>
<path d="M0 0 C3.94565028 1.37923174 6.75619125 4.31977763 9.75 7.125 C10.25660156 7.59292969 10.76320313 8.06085938 11.28515625 8.54296875 C12.52719141 9.69126541 13.76411494 10.84508672 15 12 C11.22089522 12 10.53893899 11.00296038 7.8125 8.5 C7.09707031 7.8503125 6.38164063 7.200625 5.64453125 6.53125 C5.10183594 6.0259375 4.55914063 5.520625 4 5 C1.66924071 5.95865509 1.66924071 5.95865509 0 9 C0.58789307 9.27094482 1.17578613 9.54188965 1.78149414 9.82104492 C3.97481884 10.98661827 5.62933413 12.23427548 7.49609375 13.86328125 C8.13740234 14.42080078 8.77871094 14.97832031 9.43945312 15.55273438 C10.09880859 16.13345703 10.75816406 16.71417969 11.4375 17.3125 C12.09298828 17.88162109 12.74847656 18.45074219 13.42382812 19.03710938 C17.08700632 22.23733827 20.60658263 25.51504536 24 29 C18.86615807 26.71170556 14.88106854 22.9299569 10.60888672 19.34570312 C8.93510517 17.94572074 7.25128526 16.55847399 5.56640625 15.171875 C4.4188739 14.21922794 3.27173117 13.26611133 2.125 12.3125 C1.59011963 11.87365479 1.05523926 11.43480957 0.50415039 10.98266602 C-3.13608651 7.9307963 -6.06144713 4.70301035 -9 1 C-6.53199953 2.15173355 -4.95216435 3.04783565 -3 5 C-2.814375 4.0409375 -2.814375 4.0409375 -2.625 3.0625 C-2.41875 2.381875 -2.2125 1.70125 -2 1 C-1.34 0.67 -0.68 0.34 0 0 Z " fill="#6D181D" transform="translate(688,356)"></path>
<path d="M0 0 C2.31 0 4.62 0 7 0 C5.43618819 9.6956332 2.20450331 18.74926403 -1 28 C-2.29065057 24.1280483 -1.22324098 21.55767399 -0.0625 17.8125 C0.13279297 17.15830078 0.32808594 16.50410156 0.52929688 15.83007812 C1.01182563 14.21772593 1.50490205 12.60853711 2 11 C-1.27773504 11.75150023 -1.27773504 11.75150023 -3 15 C-2.22095672 4.44191344 -2.22095672 4.44191344 0 0 Z " fill="#86232A" transform="translate(477,623)"></path>
<path d="M0 0 C1.98 0 3.96 0 6 0 C6 11.22 6 22.44 6 34 C4.02 34 2.04 34 0 34 C0 29.38 0 24.76 0 20 C0.33 20 0.66 20 1 20 C1 24.29 1 28.58 1 33 C1.99 33 2.98 33 4 33 C4 22.77 4 12.54 4 2 C3.01 2 2.02 2 1 2 C1 5.96 1 9.92 1 14 C0.67 14 0.34 14 0 14 C0 9.38 0 4.76 0 0 Z " fill="#7F151C" transform="translate(616,623)"></path>
<path d="M0 0 C3.40858586 3.40858586 3.93008394 8.32201465 4.125 13 C4.08375 13.66 4.0425 14.32 4 15 C3.34 14.34 2.68 13.68 2 13 C1.67 36.43 1.34 59.86 1 84 C0.67 84 0.34 84 0 84 C0 56.28 0 28.56 0 0 Z " fill="#FDFEFE" transform="translate(534,500)"></path>
<path d="M0 0 C0.33 0 0.66 0 1 0 C0.67 3.3 0.34 6.6 0 10 C-9.24 10 -18.48 10 -28 10 C-27.67 7.69 -27.34 5.38 -27 3 C-26.34 4.32 -25.68 5.64 -25 7 C-17.41 7 -9.82 7 -2 7 C-1.22227595 4.66682784 -0.57584432 2.38564077 0 0 Z " fill="#7E3537" transform="translate(746,574)"></path>
<path d="M0 0 C0.99 0 1.98 0 3 0 C3.02685938 2.14576637 3.04633088 4.29162645 3.0625 6.4375 C3.07410156 7.63246094 3.08570313 8.82742188 3.09765625 10.05859375 C3 13 3 13 2 14 C4.31 14.33 6.62 14.66 9 15 C8.360625 15.103125 7.72125 15.20625 7.0625 15.3125 C6.0415625 15.6528125 6.0415625 15.6528125 5 16 C3.89485234 19.31544299 3.67892369 22.20410111 3.4375 25.6875 C3.35371094 26.86699219 3.26992188 28.04648437 3.18359375 29.26171875 C3.12300781 30.16535156 3.06242188 31.06898438 3 32 C2.01 32 1.02 32 0 32 C0 21.44 0 10.88 0 0 Z " fill="#92303A" transform="translate(595,624)"></path>
<path d="M0 0 C0.99 0 1.98 0 3 0 C3 10.56 3 21.12 3 32 C2.01 32 1.02 32 0 32 C0 21.44 0 10.88 0 0 Z " fill="#94303C" transform="translate(706,624)"></path>
<path d="M0 0 C1.32 0 2.64 0 4 0 C4.02699725 2.27076842 4.04639453 4.54162821 4.0625 6.8125 C4.07410156 8.07707031 4.08570313 9.34164062 4.09765625 10.64453125 C4 14 4 14 3 17 C3.08744008 19.5808926 3.22868495 22.11691478 3.4375 24.6875 C3.48970703 25.38939453 3.54191406 26.09128906 3.59570312 26.81445312 C3.72507865 28.54338054 3.86182531 30.27175355 4 32 C2.68 32 1.36 32 0 32 C0 21.44 0 10.88 0 0 Z " fill="#902C37" transform="translate(541,624)"></path>
<path d="M0 0 C4.69398156 0.54434408 8.11231572 1.18892578 12.01171875 4.08203125 C11.68171875 5.40203125 11.35171875 6.72203125 11.01171875 8.08203125 C8.00140131 9.0162677 7.14521607 9.12653036 4.01171875 8.08203125 C-0.55015911 7.82859359 -3.85979197 8.08033948 -7.98828125 10.08203125 C-5.62535469 7.55614423 -4.32365614 6.19382288 -0.98828125 5.08203125 C-1.97828125 4.09203125 -2.96828125 3.10203125 -3.98828125 2.08203125 C-1.98828125 0.08203125 -1.98828125 0.08203125 0 0 Z " fill="#822027" transform="translate(680.98828125,621.91796875)"></path>
<path d="M0 0 C0.99 0.33 1.98 0.66 3 1 C2.08267761 4.03422022 1.29026126 6.59363423 -0.5625 9.1875 C-2.79660066 13.55856652 -2.75383237 18.15304417 -3 23 C-3.99 23 -4.98 23 -6 23 C-6.06058594 22.24074219 -6.12117187 21.48148438 -6.18359375 20.69921875 C-6.26738281 19.70535156 -6.35117187 18.71148438 -6.4375 17.6875 C-6.51871094 16.70136719 -6.59992187 15.71523438 -6.68359375 14.69921875 C-6.91812559 11.90624401 -6.91812559 11.90624401 -8 9 C-6.30146995 7.30146995 -4.59879391 5.61059409 -2.875 3.9375 C-0.94179513 2.13411958 -0.94179513 2.13411958 0 0 Z " fill="#93303A" transform="translate(649,633)"></path>
<path d="M0 0 C3 4 3 4 4 7 C3.69720123 7.59133728 3.39440247 8.18267456 3.08242798 8.79193115 C1.6431644 11.72791685 1.71970822 14.06470364 1.68115234 17.32910156 C1.66128265 18.61012756 1.64141296 19.89115356 1.62094116 21.21099854 C1.60906564 22.6042056 1.59740273 23.9974145 1.5859375 25.390625 C1.56722168 26.8198152 1.54764795 28.24899441 1.5272522 29.67816162 C1.47596852 33.43291736 1.43632284 37.18770892 1.39910889 40.94262695 C1.35904551 44.7769453 1.30796385 48.61111517 1.2578125 52.4453125 C1.16109785 59.96343972 1.07667899 67.4816389 1 75 C0.67 75 0.34 75 0 75 C0 50.25 0 25.5 0 0 Z " fill="#EFE7E5" transform="translate(535,509)"></path>
<path d="M0 0 C4.39383706 1.59623144 8.28995807 3.78024333 12.3125 6.125 C12.95767578 6.49753906 13.60285156 6.87007813 14.26757812 7.25390625 C15.84675945 8.16632213 17.42361864 9.08275509 19 10 C19.99 9.01 20.98 8.02 22 7 C23.65 7.66 25.3 8.32 27 9 C26.34 10.65 25.68 12.3 25 14 C28.63 14 32.26 14 36 14 C35.67 14.66 35.34 15.32 35 16 C30.24091941 17.37319304 27.53813997 17.65175007 22.93359375 15.70068359 C19.54510389 13.80714571 16.263731 11.78480682 13 9.6875 C11.84631742 8.97516016 10.69137647 8.26485411 9.53515625 7.55664062 C1.1769361 2.35387219 1.1769361 2.35387219 0 0 Z " fill="#6D161A" transform="translate(759,417)"></path>
<path d="M0 0 C0.33 0 0.66 0 1 0 C1 11.22 1 22.44 1 34 C7.93 34 14.86 34 22 34 C22 32.02 22 30.04 22 28 C22.33 28 22.66 28 23 28 C23.04241723 30.33294775 23.04092937 32.66702567 23 35 C22 36 22 36 19.86694336 36.11352539 C18.49227905 36.10567017 18.49227905 36.10567017 17.08984375 36.09765625 C16.10048828 36.09443359 15.11113281 36.09121094 14.09179688 36.08789062 C13.05087891 36.07951172 12.00996094 36.07113281 10.9375 36.0625 C9.89271484 36.05798828 8.84792969 36.05347656 7.77148438 36.04882812 C5.1809334 36.03699913 2.59049441 36.02051689 0 36 C-1.53937439 32.92125123 -1.00296786 29.73263303 -0.87890625 26.3671875 C-0.84348976 25.23943405 -0.84348976 25.23943405 -0.80735779 24.08889771 C-0.7306938 21.68407434 -0.64668156 19.27957082 -0.5625 16.875 C-0.50928203 15.24610948 -0.45654161 13.61720328 -0.40429688 11.98828125 C-0.27507502 7.9919844 -0.13926173 3.99595908 0 0 Z " fill="#E7D8D7" transform="translate(326,623)"></path>
<path d="M0 0 C0.99 0 1.98 0 3 0 C3 10.56 3 21.12 3 32 C2.01 32 1.02 32 0 32 C-0.02705308 29.58325776 -0.04686438 27.1668206 -0.0625 24.75 C-0.07087891 24.06808594 -0.07925781 23.38617187 -0.08789062 22.68359375 C-0.10428392 19.30657446 -0.05628768 16.22708361 1 13 C0.67 13 0.34 13 0 13 C0 8.71 0 4.42 0 0 Z " fill="#8E2530" transform="translate(198,624)"></path>
<path d="M0 0 C-0.61793855 13.16848365 -0.61793855 13.16848365 -4 18 C-6.6875 20.375 -6.6875 20.375 -9 22 C-9.66 21.67 -10.32 21.34 -11 21 C-10.01 20.34 -9.02 19.68 -8 19 C-5.91452046 16.22444617 -5.91452046 16.22444617 -5 13 C-5.33 12.34 -5.66 11.68 -6 11 C-6.2275015 9.12943209 -6.40962811 7.25314042 -6.5625 5.375 C-6.64628906 4.37210938 -6.73007812 3.36921875 -6.81640625 2.3359375 C-6.87699219 1.56507813 -6.93757813 0.79421875 -7 0 C-3.86650268 -1.04449911 -3.01031744 -0.93423645 0 0 Z " fill="#93303A" transform="translate(416,632)"></path>
<path d="M0 0 C1.65 0.66 3.3 1.32 5 2 C4.01 2.495 4.01 2.495 3 3 C3.14204741 4.58367747 3.28880153 6.16693318 3.4375 7.75 C3.51871094 8.63171875 3.59992188 9.5134375 3.68359375 10.421875 C3.93714901 12.9690211 3.93714901 12.9690211 4.59765625 15.265625 C4.79681641 16.12414062 4.79681641 16.12414062 5 17 C4.67 17.33 4.34 17.66 4 18 C3.76346477 20.52596259 3.57826308 23.03107207 3.4375 25.5625 C3.39431641 26.27341797 3.35113281 26.98433594 3.30664062 27.71679688 C3.20028223 29.47761912 3.09961154 31.2387832 3 33 C2.67 33 2.34 33 2 33 C2 28.38 2 23.76 2 19 C1.34 19 0.68 19 0 19 C0 17.35 0 15.7 0 14 C-4.95 14 -9.9 14 -15 14 C-15 13.67 -15 13.34 -15 13 C-10.05 13 -5.1 13 0 13 C0 8.71 0 4.42 0 0 Z " fill="#9C4249" transform="translate(195,623)"></path>
<path d="M0 0 C5.60109448 -0.28971178 9.14750673 -0.15976306 14 3 C15.875 5.1875 15.875 5.1875 17 7 C17.66 6.34 18.32 5.68 19 5 C18.6814823 2.89179203 18.6814823 2.89179203 18 1 C20.42392636 3.31853826 21.90469818 4.74777843 22.16796875 8.20703125 C22.23248937 16.81408242 22.23248937 16.81408242 20 21 C18.8422494 17.52674819 18.93133348 14.63932552 19 11 C18.01 12.485 18.01 12.485 17 14 C16.01 15.485 16.01 15.485 15 17 C14.93941406 16.39671875 14.87882812 15.7934375 14.81640625 15.171875 C14.73261719 14.37265625 14.64882813 13.5734375 14.5625 12.75 C14.48128906 11.96109375 14.40007812 11.1721875 14.31640625 10.359375 C14.00488803 7.70381637 14.00488803 7.70381637 13 4 C8.71 3.01 4.42 2.02 0 1 C0 0.67 0 0.34 0 0 Z " fill="#7F1A20" transform="translate(296,628)"></path>
<path d="M0 0 C3.0625 0.1875 3.0625 0.1875 5.0625 2.1875 C2.4225 2.1875 -0.2175 2.1875 -2.9375 2.1875 C-2.9375 13.4075 -2.9375 24.6275 -2.9375 36.1875 C-0.6275 36.1875 1.6825 36.1875 4.0625 36.1875 C4.0625 33.8775 4.0625 31.5675 4.0625 29.1875 C4.7225 29.1875 5.3825 29.1875 6.0625 29.1875 C6.16015625 35.33984375 6.16015625 35.33984375 6.0625 37.1875 C5.0625 38.1875 5.0625 38.1875 3.25 38.3203125 C2.528125 38.31773437 1.80625 38.31515625 1.0625 38.3125 C0.340625 38.31507813 -0.38125 38.31765625 -1.125 38.3203125 C-2.9375 38.1875 -2.9375 38.1875 -3.9375 37.1875 C-4.03845564 34.53293807 -4.07720998 31.90494824 -4.0703125 29.25 C-4.07126923 28.454729 -4.07222595 27.65945801 -4.07321167 26.84008789 C-4.07389343 25.1554354 -4.07203943 23.47078029 -4.06787109 21.78613281 C-4.06252275 19.19850803 -4.06781619 16.61105684 -4.07421875 14.0234375 C-4.07355797 12.39062461 -4.0722768 10.75781184 -4.0703125 9.125 C-4.07233673 8.34584229 -4.07436096 7.56668457 -4.07644653 6.76391602 C-4.04786379 0.25837428 -4.04786379 0.25837428 0 0 Z " fill="#FCFBF9" transform="translate(251.9375,620.8125)"></path>
<path d="M0 0 C1.66666667 0 3.33333333 0 5 0 C5 0.66 5 1.32 5 2 C10.28 2 15.56 2 21 2 C21 2.33 21 2.66 21 3 C15.72 3 10.44 3 5 3 C4.67 5.31 4.34 7.62 4 10 C1.69 10 -0.62 10 -3 10 C-2.25 3.375 -2.25 3.375 0 0 Z " fill="#831C23" transform="translate(213,647)"></path>
<path d="M0 0 C0 1.98 0 3.96 0 6 C-3.3 6 -6.6 6 -10 6 C-10 15.24 -10 24.48 -10 34 C-10.33 34 -10.66 34 -11 34 C-11 24.43 -11 14.86 -11 5 C-8.03 5 -5.06 5 -2 5 C-2 4.01 -2 3.02 -2 2 C-9.59 2 -17.18 2 -25 2 C-25 1.67 -25 1.34 -25 1 C-8.29157175 -0.14806378 -8.29157175 -0.14806378 0 0 Z " fill="#92393C" transform="translate(533,623)"></path>
<path d="M0 0 C2.9375 1.9375 2.9375 1.9375 5 4 C5 4.66 5 5.32 5 6 C2.83203125 7.171875 2.83203125 7.171875 0 8 C-2.67578125 6.953125 -2.67578125 6.953125 -5.3125 5.25 C-6.63701172 4.42242187 -6.63701172 4.42242187 -7.98828125 3.578125 C-8.65214844 3.05734375 -9.31601562 2.5365625 -10 2 C-10 1.34 -10 0.68 -10 0 C-6.18323682 -1.27225439 -3.91280349 -0.87700768 0 0 Z " fill="#7F2026" transform="translate(777,420)"></path>
<path d="M0 0 C0.33 0 0.66 0 1 0 C1.16724111 4.96603713 1.32783783 9.93222678 1.48217773 14.89868164 C1.53567115 16.58949623 1.59100598 18.28025358 1.64819336 19.97094727 C1.72990041 22.39587047 1.80506395 24.82091994 1.87890625 27.24609375 C1.90594131 28.00651474 1.93297638 28.76693573 1.96083069 29.55039978 C2.01291299 31.36623334 2.01186585 33.18345843 2 35 C1 36 1 36 -0.84765625 36.09765625 C-2.8984375 36.06510417 -4.94921875 36.03255208 -7 36 C-8.52634923 32.94730154 -7.83794444 30.24154311 -7.5625 26.875 C-7.46066406 25.59367188 -7.35882812 24.31234375 -7.25390625 22.9921875 C-7.12822266 21.51105469 -7.12822266 21.51105469 -7 20 C-6.67 20 -6.34 20 -6 20 C-6 24.62 -6 29.24 -6 34 C-4.02 34 -2.04 34 0 34 C0 22.78 0 11.56 0 0 Z " fill="#F6EFED" transform="translate(568,623)"></path>
<path d="M0 0 C0.99 0.33 1.98 0.66 3 1 C2.46698301 5.08646362 1.82457756 9.13708776 1.0625 13.1875 C0.90910156 14.00605469 0.75570313 14.82460938 0.59765625 15.66796875 C0.00035626 17.9986099 -0.84465006 19.89716643 -2 22 C-3.65 22 -5.3 22 -7 22 C-5.68 21.67 -4.36 21.34 -3 21 C-3.05220703 19.22882812 -3.05220703 19.22882812 -3.10546875 17.421875 C-3.13361232 15.86459758 -3.16091187 14.30730475 -3.1875 12.75 C-3.22520508 11.58404297 -3.22520508 11.58404297 -3.26367188 10.39453125 C-3.33834499 4.57002825 -3.33834499 4.57002825 -1.48828125 1.453125 C-0.99714844 0.97359375 -0.50601562 0.4940625 0 0 Z " fill="#94313B" transform="translate(476,633)"></path>
<path d="M0 0 C2.07135507 2.58141848 1.99765847 5.40799224 2.30078125 8.62109375 C1.64078125 8.29109375 0.98078125 7.96109375 0.30078125 7.62109375 C-0.35921875 8.28109375 -1.01921875 8.94109375 -1.69921875 9.62109375 C-2.20325643 8.33099732 -2.70231801 7.03895586 -3.19921875 5.74609375 C-3.47765625 5.02679687 -3.75609375 4.3075 -4.04296875 3.56640625 C-4.69921875 1.62109375 -4.69921875 1.62109375 -4.69921875 -0.37890625 C-7.99882016 -2.02870695 -11.69049759 -1.76148986 -15.32421875 -1.94140625 C-16.12601562 -1.98458984 -16.9278125 -2.02777344 -17.75390625 -2.07226562 C-19.73546985 -2.17842082 -21.71732146 -2.2791748 -23.69921875 -2.37890625 C-23.69921875 -2.70890625 -23.69921875 -3.03890625 -23.69921875 -3.37890625 C-6.83048728 -5.54290117 -6.83048728 -5.54290117 0 0 Z " fill="#8B262F" transform="translate(313.69921875,627.37890625)"></path>
<path d="M0 0 C0.66 0 1.32 0 2 0 C2.50512244 1.60256108 3.00391627 3.20711792 3.5 4.8125 C3.7784375 5.70582031 4.056875 6.59914063 4.34375 7.51953125 C5 10 5 10 5 13 C2.03 13 -0.94 13 -4 13 C-3.52140759 11.39566191 -3.04210442 9.79153584 -2.5625 8.1875 C-2.29566406 7.29417969 -2.02882812 6.40085937 -1.75390625 5.48046875 C-1.19612127 3.64526945 -0.60655425 1.81966274 0 0 Z " fill="#F0E5E3" transform="translate(225,631)"></path>
<path d="M0 0 C0.69480469 0.00064453 1.38960937 0.00128906 2.10546875 0.00195312 C6.20851936 0.03672474 10.09998789 0.39890045 14.125 1.1875 C14.125 2.1775 14.125 3.1675 14.125 4.1875 C10.91638226 4.04754486 7.70818712 3.89947743 4.5 3.75 C3.59636719 3.71068359 2.69273437 3.67136719 1.76171875 3.63085938 C-2.85716146 3.41171542 -7.32653636 3.0866149 -11.875 2.1875 C-8.10953414 -0.2805385 -4.33854098 -0.07562594 0 0 Z " fill="#F0EAE6" transform="translate(247.875,439.8125)"></path>
<path d="M0 0 C2.475 0.99 2.475 0.99 5 2 C5.33 1.34 5.66 0.68 6 0 C6.5775 0.309375 7.155 0.61875 7.75 0.9375 C9.90791183 2.07500447 9.90791183 2.07500447 12.0625 2.375 C14.69976283 3.22572995 15.53040849 4.72213316 17 7 C16.01 8.485 16.01 8.485 15 10 C11.13518578 8.61423779 8.03192572 6.81080359 4.6875 4.4375 C3.80449219 3.81746094 2.92148437 3.19742187 2.01171875 2.55859375 C1.34785156 2.04425781 0.68398438 1.52992188 0 1 C0 0.67 0 0.34 0 0 Z " fill="#88252D" transform="translate(738,402)"></path>
<path d="M0 0 C2.64 0 5.28 0 8 0 C8.33 1.98 8.66 3.96 9 6 C8.34 5.67 7.68 5.34 7 5 C7 7.97 7 10.94 7 14 C6.34 13.67 5.68 13.34 5 13 C5 11.02 5 9.04 5 7 C2.03 6.505 2.03 6.505 -1 6 C-0.67 4.02 -0.34 2.04 0 0 Z " fill="#842028" transform="translate(222,623)"></path>
<path d="M0 0 C3.63 0 7.26 0 11 0 C11 4.29 11 8.58 11 13 C10.67 12.34 10.34 11.68 10 11 C9.34 11 8.68 11 8 11 C7.67 8.69 7.34 6.38 7 4 C4.69 3.67 2.38 3.34 0 3 C0 2.01 0 1.02 0 0 Z " fill="#94313B" transform="translate(682,640)"></path>
<path d="M0 0 C4.62 0 9.24 0 14 0 C14 1.32 14 2.64 14 4 C8.72 4 3.44 4 -2 4 C-1.34 3.67 -0.68 3.34 0 3 C0 2.01 0 1.02 0 0 Z " fill="#94313B" transform="translate(361,652)"></path>
<path d="M0 0 C0.99 0 1.98 0 3 0 C3 7.59 3 15.18 3 23 C-1.33333333 18.66666667 -1.33333333 18.66666667 -3 16 C-2.67 15.01 -2.34 14.02 -2 13 C-1.67 13.33 -1.34 13.66 -1 14 C-0.67 9.38 -0.34 4.76 0 0 Z " fill="#ECD9D6" transform="translate(774,623)"></path>
<path d="M0 0 C0.66 0.99 1.32 1.98 2 3 C0.88671875 5.48046875 0.88671875 5.48046875 -1 8 C-3.91796875 8.48828125 -3.91796875 8.48828125 -7.1875 8.3125 C-8.27417969 8.26738281 -9.36085938 8.22226562 -10.48046875 8.17578125 C-11.31191406 8.11777344 -12.14335938 8.05976563 -13 8 C-13 5 -13 5 -11.5 3.3125 C-10.7575 2.6628125 -10.7575 2.6628125 -10 2 C-9.67 2.66 -9.34 3.32 -9 4 C-4.7212019 3.58413646 -4.7212019 3.58413646 -1.125 1.4375 C-0.75375 0.963125 -0.3825 0.48875 0 0 Z " fill="#8B2A32" transform="translate(797,424)"></path>
<path d="M0 0 C4.62 0 9.24 0 14 0 C14 1.32 14 2.64 14 4 C9.38 4 4.76 4 0 4 C0 2.68 0 1.36 0 0 Z " fill="#94303A" transform="translate(728,652)"></path>
<path d="M0 0 C0 0.66 0 1.32 0 2 C0.66 2.33 1.32 2.66 2 3 C-3.00932754 6.00559652 -6.32723489 6.29341888 -12 6 C-12 4.68 -12 3.36 -12 2 C-10.56656 1.46809459 -9.12804633 0.94984742 -7.6875 0.4375 C-6.48673828 0.00244141 -6.48673828 0.00244141 -5.26171875 -0.44140625 C-3 -1 -3 -1 0 0 Z " fill="#8B2C35" transform="translate(692,651)"></path>
<path d="M0 0 C0.99 0 1.98 0 3 0 C3 0.66 3 1.32 3 2 C4.32 2.66 5.64 3.32 7 4 C6.34 4 5.68 4 5 4 C4.67 5.98 4.34 7.96 4 10 C1 10 1 10 -2 9 C-1.34 6.03 -0.68 3.06 0 0 Z " fill="#8B2830" transform="translate(220,627)"></path>
<path d="M0 0 C3.96 0 7.92 0 12 0 C12 1.32 12 2.64 12 4 C7.71 4 3.42 4 -1 4 C-0.67 2.68 -0.34 1.36 0 0 Z " fill="#92313A" transform="translate(800,638)"></path>
<path d="M0 0 C0.33 0 0.66 0 1 0 C1 6.27 1 12.54 1 19 C0.01 19.33 -0.98 19.66 -2 20 C-2.05425226 17.60385874 -2.09379027 15.20896147 -2.125 12.8125 C-2.14175781 12.13896484 -2.15851563 11.46542969 -2.17578125 10.77148438 C-2.21538674 6.71192193 -1.80020002 3.65001185 0 0 Z " fill="#912E38" transform="translate(293,630)"></path>
<path d="M0 0 C1.98362069 2.91708924 1.9876191 4.12380904 1.625 7.75 C1.41875 8.8225 1.2125 9.895 1 11 C7.93 11.495 7.93 11.495 15 12 C15 12.33 15 12.66 15 13 C11.7 13.33 8.4 13.66 5 14 C5 14.33 5 14.66 5 15 C2.69 15 0.38 15 -2 15 C-1.47462276 9.9697924 -0.89405214 4.98114761 0 0 Z " fill="#F0E9E6" transform="translate(758,519)"></path>
<path d="M0 0 C0.09765625 6.15234375 0.09765625 6.15234375 0 8 C-1 9 -1 9 -3.50390625 9.09765625 C-5.01791016 9.08025391 -5.01791016 9.08025391 -6.5625 9.0625 C-7.57441406 9.05347656 -8.58632813 9.04445313 -9.62890625 9.03515625 C-10.41136719 9.02355469 -11.19382812 9.01195312 -12 9 C-12 8.67 -12 8.34 -12 8 C-8.7 7.67 -5.4 7.34 -2 7 C-2 5.02 -2 3.04 -2 1 C-6.29 1 -10.58 1 -15 1 C-15 0.67 -15 0.34 -15 0 C-12.87562788 -0.19448477 -10.75046809 -0.38038289 -8.625 -0.5625 C-7.44164062 -0.66691406 -6.25828125 -0.77132812 -5.0390625 -0.87890625 C-2 -1 -2 -1 0 0 Z " fill="#F1E5E2" transform="translate(815,636)"></path>
<path d="M0 0 C0 4.90312435 -3.70199631 7.61341357 -7 11 C-8.62541044 12.38332804 -10.27385413 13.74462118 -12 15 C-12.66 14.67 -13.32 14.34 -14 14 C-13.28972656 13.22914063 -12.57945312 12.45828125 -11.84765625 11.6640625 C-10.9191529 10.65114976 -9.99077394 9.63812299 -9.0625 8.625 C-8.59392578 8.11710937 -8.12535156 7.60921875 -7.64257812 7.0859375 C-5.02273232 4.25734146 -5.02273232 4.25734146 -3 1 C-2.01 0.67 -1.02 0.34 0 0 Z " fill="#71191E" transform="translate(725,305)"></path>
<path d="M0 0 C0.86625 0.4640625 0.86625 0.4640625 1.75 0.9375 C4.21905868 2.19285032 4.21905868 2.19285032 8 3 C8.33 5.97 8.66 8.94 9 12 C7.45428722 9.68143083 6.20381448 7.49361571 5 5 C4.855625 5.5775 4.71125 6.155 4.5625 6.75 C4.04166667 8.83333333 3.52083333 10.91666667 3 13 C2.49242138 11.58603098 1.99425075 10.16868271 1.5 8.75 C1.08234375 7.56664062 1.08234375 7.56664062 0.65625 6.359375 C0 4 0 4 0 0 Z " fill="#831E25" transform="translate(439,632)"></path>
<path d="M0 0 C0.33 0.66 0.66 1.32 1 2 C2.65 1.67 4.3 1.34 6 1 C4.68139111 5.61513112 2.78644563 9.09897612 0 13 C-0.33 12.34 -0.66 11.68 -1 11 C-0.0625 8.375 -0.0625 8.375 1 6 C-2.0745356 6.7763932 -2.0745356 6.7763932 -4 9 C-3.35455571 5.51460083 -1.89865603 2.97180943 0 0 Z " fill="#821F25" transform="translate(650,629)"></path>
<path d="M0 0 C4 3 4 3 4.6875 6.375 C4.790625 7.57125 4.89375 8.7675 5 10 C5.31966139 11.66934283 5.64731066 13.3373217 6 15 C3.03 14.505 3.03 14.505 0 14 C0 9.38 0 4.76 0 0 Z " fill="#94323C" transform="translate(228,625)"></path>
<path d="M0 0 C2.83359844 -0.05449228 5.66612485 -0.09390733 8.5 -0.125 C9.29148437 -0.14175781 10.08296875 -0.15851563 10.8984375 -0.17578125 C16.27998079 -0.21989226 20.82999927 0.49405942 26 2 C26 2.66 26 3.32 26 4 C26.66 4 27.32 4 28 4 C28 4.66 28 5.32 28 6 C26.5608866 5.71640113 25.12374482 5.42278601 23.6875 5.125 C22.88699219 4.96257812 22.08648437 4.80015625 21.26171875 4.6328125 C19 4 19 4 16 2 C13.24582682 1.69933846 10.57354853 1.49074701 7.8125 1.375 C6.68811523 1.31699219 6.68811523 1.31699219 5.54101562 1.2578125 C3.69440801 1.16371784 1.8472381 1.08077681 0 1 C0 0.67 0 0.34 0 0 Z " fill="#F0EBE6" transform="translate(341,440)"></path>
<path d="M0 0 C3.3 0.33 6.6 0.66 10 1 C7.32444856 3.00666358 5.18897322 4.50248682 2.3125 6 C-1.24724757 7.66059991 -1.24724757 7.66059991 -2 11 C-2.66 10.67 -3.32 10.34 -4 10 C-2.8741386 6.46157845 -1.66905241 3.33810482 0 0 Z " fill="#94323C" transform="translate(675,623)"></path>
<path d="M0 0 C0.33 0.66 0.66 1.32 1 2 C0.67 2.99 0.34 3.98 0 5 C0.99 5 1.98 5 3 5 C3.33 6.65 3.66 8.3 4 10 C1.69 10 -0.62 10 -3 10 C-2.25 3.375 -2.25 3.375 0 0 Z " fill="#84262B" transform="translate(213,647)"></path>
<path d="M0 0 C0.99 0.33 1.98 0.66 3 1 C3.33 4.3 3.66 7.6 4 11 C3.01 11.33 2.02 11.66 1 12 C0.34 11.67 -0.32 11.34 -1 11 C-1.4140625 8.71484375 -1.4140625 8.71484375 -1.625 5.9375 C-1.69976562 5.01839844 -1.77453125 4.09929688 -1.8515625 3.15234375 C-1.90054687 2.44207031 -1.94953125 1.73179687 -2 1 C-1.34 0.67 -0.68 0.34 0 0 Z " fill="#932F38" transform="translate(465,636)"></path>
<path d="M0 0 C1.81205858 3.07140431 2.22518386 5.02777299 1.8125 8.5625 C1.73644531 9.32691406 1.66039062 10.09132813 1.58203125 10.87890625 C0.90244442 13.35552133 -0.06112271 14.36423561 -2 16 C-3.3805087 12.23331402 -2.59568159 9.55210827 -1.5625 5.75 C-1.27503906 4.67234375 -0.98757813 3.5946875 -0.69140625 2.484375 C-0.46324219 1.66453125 -0.23507812 0.8446875 0 0 Z " fill="#F0EAE7" transform="translate(581,559)"></path>
<path d="M0 0 C3.96 0 7.92 0 12 0 C12 0.99 12 1.98 12 3 C8.04 3 4.08 3 0 3 C0 2.01 0 1.02 0 0 Z " fill="#94333E" transform="translate(361,638)"></path>
<path d="M0 0 C0.99 0.33 1.98 0.66 3 1 C4.0257259 5.41062136 4.03684712 7.92630576 2 12 C-0.61020066 9.38979934 -0.63751674 7.62483262 -1 4 C-0.5625 1.625 -0.5625 1.625 0 0 Z " fill="#F2E9E6" transform="translate(448,633)"></path>
<path d="M0 0 C0.33 0 0.66 0 1 0 C1.20852314 6.40629424 1.1583195 11.92972642 -1 18 C-3.21696593 14.51384168 -3.0271308 12.41897508 -2.1875 8.4375 C-1.99542969 7.48746094 -1.80335938 6.53742188 -1.60546875 5.55859375 C-1 3 -1 3 0 0 Z " fill="#F2EDEA" transform="translate(598,497)"></path>
<path d="M0 0 C0.33 0 0.66 0 1 0 C1 1.98 1 3.96 1 6 C3.64 6 6.28 6 9 6 C9 7.98 9 9.96 9 12 C7.35 12 5.7 12 4 12 C4.99 11.67 5.98 11.34 7 11 C7 10.01 7 9.02 7 8 C5.5459375 8.0309375 5.5459375 8.0309375 4.0625 8.0625 C1 8 1 8 0 7 C-0.04092937 4.66702567 -0.04241723 2.33294775 0 0 Z " fill="#FAF7F5" transform="translate(679,638)"></path>
<path d="M0 0 C4.95 0 9.9 0 15 0 C15 0.99 15 1.98 15 3 C10.38 3 5.76 3 1 3 C0.67 2.01 0.34 1.02 0 0 Z " fill="#DCCBC7" transform="translate(343,585)"></path>
<path d="M0 0 C1.21587489 3.64762466 0.33224012 4.73540814 -1.23046875 8.08203125 C-2.39267272 10.97869191 -2.68504961 13.91348619 -3 17 C-3.66 16.34 -4.32 15.68 -5 15 C-4.9765625 12.6171875 -4.9765625 12.6171875 -4.625 9.875 C-4.51414063 8.96492188 -4.40328125 8.05484375 -4.2890625 7.1171875 C-4.19367188 6.41851562 -4.09828125 5.71984375 -4 5 C-3.34 5 -2.68 5 -2 5 C-1.34 3.35 -0.68 1.7 0 0 Z " fill="#852E32" transform="translate(211,465)"></path>
<path d="M0 0 C1.9507829 2.92617435 2.71513462 5.02044581 3.625 8.375 C3.88539063 9.31085938 4.14578125 10.24671875 4.4140625 11.2109375 C4.97925133 13.90123635 5.10954217 16.26144571 5 19 C0.66180471 12.49270707 -0.47191953 7.70801907 0 0 Z " fill="#661217" transform="translate(544,447)"></path>
<path d="M0 0 C0.99 0.99 1.98 1.98 3 3 C1.515 5.475 1.515 5.475 0 8 C0.99 9.485 0.99 9.485 2 11 C1.01 11 0.02 11 -1 11 C-1.33 10.01 -1.66 9.02 -2 8 C-2.66 7.67 -3.32 7.34 -4 7 C-2.68 4.69 -1.36 2.38 0 0 Z " fill="#802D32" transform="translate(687,345)"></path>
<path d="M0 0 C0.33 0 0.66 0 1 0 C1 4.62 1 9.24 1 14 C3.64 14 6.28 14 9 14 C8.67 14.66 8.34 15.32 8 16 C5.36 16 2.72 16 0 16 C-1.52634923 12.94730154 -0.83794444 10.24154311 -0.5625 6.875 C-0.46066406 5.59367188 -0.35882812 4.31234375 -0.25390625 2.9921875 C-0.12822266 1.51105469 -0.12822266 1.51105469 0 0 Z " fill="#E5D2CF" transform="translate(561,643)"></path>
<path d="M0 0 C3.63 0 7.26 0 11 0 C11 0.99 11 1.98 11 3 C5.04296875 3.29296875 5.04296875 3.29296875 3 3 C2.01 2.01 1.02 1.02 0 0 Z " fill="#93333E" transform="translate(729,638)"></path>
<path d="M0 0 C0.33 0 0.66 0 1 0 C1.2236337 1.41433206 1.42826476 2.83167618 1.625 4.25 C1.74101563 5.03890625 1.85703125 5.8278125 1.9765625 6.640625 C2.00319395 9.32152459 1.36592084 10.72694089 0 13 C-0.66 12.34 -1.32 11.68 -2 11 C-1.68603757 7.04407344 -1.25172182 3.75516546 0 0 Z " fill="#EFE9E7" transform="translate(765,483)"></path>
<path d="M0 0 C3 1 3 1 4 3 C6.32156597 3.40729228 8.6568787 3.74438677 11 4 C11 4.99 11 5.98 11 7 C4.64285714 6.51098901 4.64285714 6.51098901 1.5625 4.0625 C0 2 0 2 0 0 Z " fill="#F0EAE7" transform="translate(236,553)"></path>
<path d="M0 0 C0.66 0 1.32 0 2 0 C1.34 3.63 0.68 7.26 0 11 C-0.99 11 -1.98 11 -3 11 C-2.69217504 9.35328588 -2.37860766 7.70764424 -2.0625 6.0625 C-1.88847656 5.14597656 -1.71445312 4.22945313 -1.53515625 3.28515625 C-1 1 -1 1 0 0 Z " fill="#F1EDE9" transform="translate(741,477)"></path>
<path d="M0 0 C0.99 0 1.98 0 3 0 C3.2226746 1.43534841 3.42761906 2.87345525 3.625 4.3125 C3.74101563 5.11300781 3.85703125 5.91351563 3.9765625 6.73828125 C4 9 4 9 2 12 C1.34 8.04 0.68 4.08 0 0 Z " fill="#F0EBE8" transform="translate(788,476)"></path>
<path d="M0 0 C0 0.99 0 1.98 0 3 C-1.28745036 3.38922918 -2.58019597 3.76098036 -3.875 4.125 C-4.95394531 4.43824219 -4.95394531 4.43824219 -6.0546875 4.7578125 C-6.69664062 4.83773438 -7.33859375 4.91765625 -8 5 C-8.66 4.34 -9.32 3.68 -10 3 C-6.48812804 0.59185923 -4.27343092 -0.36629408 0 0 Z " fill="#EADFDE" transform="translate(153,466)"></path>
<path d="M0 0 C0.66 0.66 1.32 1.32 2 2 C1.67 2.66 1.34 3.32 1 4 C0.34 4 -0.32 4 -1 4 C-1 3.01 -1 2.02 -1 1 C-3.64 1.66 -6.28 2.32 -9 3 C-8.67 2.01 -8.34 1.02 -8 0 C-5.09288879 -1.4535556 -3.10402897 -0.71133997 0 0 Z M-10 3 C-9.67 3.66 -9.34 4.32 -9 5 C-9.66 4.67 -10.32 4.34 -11 4 C-10.67 3.67 -10.34 3.34 -10 3 Z " fill="#EEE4E2" transform="translate(835,388)"></path>
<path d="M0 0 C4.35574636 0.48397182 6.0913259 1.79042858 9 5 C9.66 5.33 10.32 5.66 11 6 C10.67 6.99 10.34 7.98 10 9 C8.70391053 8.06862408 7.41328368 7.1296434 6.125 6.1875 C5.40570312 5.66542969 4.68640625 5.14335937 3.9453125 4.60546875 C2 3 2 3 0 0 Z " fill="#F2EEEA" transform="translate(754,301)"></path>
<path d="M0 0 C0.33 0.66 0.66 1.32 1 2 C-0.98567708 2.48828125 -2.97135417 2.9765625 -4.95703125 3.46484375 C-6.65683202 3.91010705 -8.33301954 4.44433985 -10 5 C-10.66 4.34 -11.32 3.68 -12 3 C-10.75823305 2.29773859 -9.50614401 1.61370891 -8.25 0.9375 C-7.20585938 0.36322266 -7.20585938 0.36322266 -6.140625 -0.22265625 C-3.61121102 -1.14118432 -2.46452647 -1.02331425 0 0 Z " fill="#F3EDEA" transform="translate(741,292)"></path>
<path d="M0 0 C3.40858586 3.40858586 3.93008394 8.32201465 4.125 13 C4.08375 13.66 4.0425 14.32 4 15 C3.34 14.34 2.68 13.68 2 13 C2 11.68 2 10.36 2 9 C1.34 9 0.68 9 0 9 C0 6.03 0 3.06 0 0 Z " fill="#F9F5F4" transform="translate(534,500)"></path>
<path d="M0 0 C2.475 0.495 2.475 0.495 5 1 C5.33 2.32 5.66 3.64 6 5 C4.02 5 2.04 5 0 5 C0 3.35 0 1.7 0 0 Z " fill="#F6F2ED" transform="translate(224,639)"></path>
<path d="M0 0 C2.375 1.5 2.375 1.5 4 3 C0.72814447 4.07310858 -1.42947592 3.89263102 -4.75 3.0625 C-5.54921875 2.86785156 -6.3484375 2.67320312 -7.171875 2.47265625 C-7.77515625 2.31667969 -8.3784375 2.16070312 -9 2 C-5.51131349 -0.32579101 -4.10281481 -0.41865457 0 0 Z " fill="#EEE7E4" transform="translate(466,444)"></path>
<path d="M0 0 C2.14418558 3.21627837 2.67582137 5.19090105 3 9 C2.34 9.66 1.68 10.32 1 11 C0.34 11 -0.32 11 -1 11 C-1.125 3.375 -1.125 3.375 0 0 Z " fill="#94353C" transform="translate(453,633)"></path>
<path d="M0 0 C0.99 0 1.98 0 3 0 C3.22245393 1.60226955 3.42746669 3.20696767 3.625 4.8125 C3.74101563 5.70582031 3.85703125 6.59914063 3.9765625 7.51953125 C4 10 4 10 2 13 C1.66127487 11.58461283 1.32925376 10.16762037 1 8.75 C0.814375 7.96109375 0.62875 7.1721875 0.4375 6.359375 C0 4 0 4 0 0 Z " fill="#ECE4E1" transform="translate(555,485)"></path>
<path d="M0 0 C3.81684226 1.55500981 6.19195732 4.03595495 9 7 C7.6078125 6.505 7.6078125 6.505 6.1875 6 C3.07970709 4.85032996 3.07970709 4.85032996 0 5 C-0.33 4.01 -0.66 3.02 -1 2 C-0.67 1.34 -0.34 0.68 0 0 Z " fill="#6D161B" transform="translate(706,372)"></path>
<path d="M0 0 C1.46015291 0.28241641 2.91809793 0.57626614 4.375 0.875 C5.18710938 1.03742187 5.99921875 1.19984375 6.8359375 1.3671875 C9 2 9 2 11 4 C9.741875 4.04125 8.48375 4.0825 7.1875 4.125 C6.47980469 4.14820313 5.77210938 4.17140625 5.04296875 4.1953125 C3 4 3 4 0 2 C0 1.34 0 0.68 0 0 Z " fill="#F3ECEA" transform="translate(145,558)"></path>
<path d="M0 0 C3.96 0 7.92 0 12 0 C12 0.33 12 0.66 12 1 C8.04 1.99 4.08 2.98 0 4 C0 2.68 0 1.36 0 0 Z " fill="#731117" transform="translate(343,443)"></path>
<path d="M0 0 C0.625 1.8125 0.625 1.8125 1 4 C-1 7 -1 7 -3.125 7.6875 C-3.74375 7.790625 -4.3625 7.89375 -5 8 C-4.67 6.68 -4.34 5.36 -4 4 C-3.34 4 -2.68 4 -2 4 C-1.67 3.01 -1.34 2.02 -1 1 C-0.67 0.67 -0.34 0.34 0 0 Z " fill="#8D2731" transform="translate(314,641)"></path>
<path d="M0 0 C0.99 0.33 1.98 0.66 3 1 C2.773125 1.5775 2.54625 2.155 2.3125 2.75 C1.73494807 5.12172477 1.73494807 5.12172477 3.4375 7.25 C3.953125 7.8275 4.46875 8.405 5 9 C4.67 9.66 4.34 10.32 4 11 C2.02 8.36 0.04 5.72 -2 3 C-1 1 -1 1 0 0 Z " fill="#811E25" transform="translate(260,635)"></path>
<path d="M0 0 C2.62187494 1.04874998 3.79371361 1.64931313 5.25 4.125 C5.4975 4.74375 5.745 5.3625 6 6 C4.68 6.33 3.36 6.66 2 7 C0 2.25 0 2.25 0 0 Z " fill="#942F3A" transform="translate(764,633)"></path>
<path d="M0 0 C0.99 0.33 1.98 0.66 3 1 C3 1.66 3 2.32 3 3 C3.66 3.33 4.32 3.66 5 4 C3.1875 5.0625 3.1875 5.0625 1 6 C0.01 5.67 -0.98 5.34 -2 5 C-1.34 5 -0.68 5 0 5 C-0.2784375 4.0409375 -0.2784375 4.0409375 -0.5625 3.0625 C-0.7790625 2.0415625 -0.7790625 2.0415625 -1 1 C-0.67 0.67 -0.34 0.34 0 0 Z " fill="#89252C" transform="translate(689,650)"></path>
<path d="M0 0 C2.14418558 3.21627837 2.67582137 5.19090105 3 9 C2.34 9.66 1.68 10.32 1 11 C0.63743142 9.5437328 0.28520207 8.08488815 -0.0625 6.625 C-0.35833984 5.40683594 -0.35833984 5.40683594 -0.66015625 4.1640625 C-1 2 -1 2 0 0 Z " fill="#F0E5E3" transform="translate(462,641)"></path>
<path d="M0 0 C2 3 2 3 2 7 C1.01 7.33 0.02 7.66 -1 8 C-1.625 5.125 -1.625 5.125 -2 2 C-1.34 1.34 -0.68 0.68 0 0 Z " fill="#95313B" transform="translate(444,636)"></path>
<path d="M0 0 C0.86625 0.2784375 0.86625 0.2784375 1.75 0.5625 C4.20692525 1.04023546 5.64397534 0.75729364 8 0 C8 0.99 8 1.98 8 3 C6.35 3.66 4.7 4.32 3 5 C1.5 3.625 1.5 3.625 0 2 C0 1.34 0 0.68 0 0 Z " fill="#94343C" transform="translate(438,631)"></path>
<path d="M0 0 C1.32 0 2.64 0 4 0 C4.33 1.98 4.66 3.96 5 6 C4.01 6 3.02 6 2 6 C0 3 0 3 0 0 Z " fill="#96323C" transform="translate(438,624)"></path>
<path d="M0 0 C2.64752004 2.57784846 4.94432065 4.91648098 7 8 C5.02 8 3.04 8 1 8 C0.67 5.36 0.34 2.72 0 0 Z " fill="#80282D" transform="translate(137,552)"></path>
<path d="M0 0 C0.66 0.66 1.32 1.32 2 2 C1.96712417 4.72869407 1.43602229 7.2966618 1 10 C0.34 9.67 -0.32 9.34 -1 9 C-0.67 6.03 -0.34 3.06 0 0 Z " fill="#ECE3E1" transform="translate(461,539)"></path>
<path d="M0 0 C0.598125 0.20625 1.19625 0.4125 1.8125 0.625 C1.4825 1.945 1.1525 3.265 0.8125 4.625 C-0.8375 4.625 -2.4875 4.625 -4.1875 4.625 C-4.5175 3.635 -4.8475 2.645 -5.1875 1.625 C-2.1875 -0.375 -2.1875 -0.375 0 0 Z " fill="#96343E" transform="translate(689.1875,625.375)"></path>
<path d="M0 0 C0.33 0 0.66 0 1 0 C1 3.96 1 7.92 1 12 C0.01 12.33 -0.98 12.66 -2 13 C-2 11.68 -2 10.36 -2 9 C-1.34 9 -0.68 9 0 9 C0 6.03 0 3.06 0 0 Z " fill="#861D25" transform="translate(360,643)"></path>
<path d="M0 0 C0.99 0 1.98 0 3 0 C3.33 2.31 3.66 4.62 4 7 C3.01 7 2.02 7 1 7 C0.67 4.69 0.34 2.38 0 0 Z " fill="#F0EAE8" transform="translate(783,456)"></path>
<path d="M0 0 C0.99 0.66 1.98 1.32 3 2 C3 2.66 3 3.32 3 4 C1.35 4.66 -0.3 5.32 -2 6 C-2.33 5.34 -2.66 4.68 -3 4 C-2.67 3.01 -2.34 2.02 -2 1 C-1.34 0.67 -0.68 0.34 0 0 Z " fill="#85272C" transform="translate(779,422)"></path>
<path d="M0 0 C2.97 0.495 2.97 0.495 6 1 C5.01 1.495 5.01 1.495 4 2 C4 2.99 4 3.98 4 5 C2.68 4.67 1.36 4.34 0 4 C0 2.66666667 0 1.33333333 0 0 Z " fill="#96353E" transform="translate(301,650)"></path>
<path d="M0 0 C0.99 0 1.98 0 3 0 C3.625 2.3125 3.625 2.3125 4 5 C3.01 6.485 3.01 6.485 2 8 C1.34 5.36 0.68 2.72 0 0 Z " fill="#EFE7E4" transform="translate(464,626)"></path>
<path d="M0 0 C2.64 0.66 5.28 1.32 8 2 C8 2.66 8 3.32 8 4 C8.66 4.33 9.32 4.66 10 5 C6.05140217 4.4359146 3.29120954 3.2568294 0 1 C0 0.67 0 0.34 0 0 Z " fill="#641014" transform="translate(222,577)"></path>
<path d="M0 0 C1.32 0.33 2.64 0.66 4 1 C3.67 2.98 3.34 4.96 3 7 C2.34 7 1.68 7 1 7 C0.67 4.69 0.34 2.38 0 0 Z " fill="#F2ECE9" transform="translate(565,525)"></path>
<path d="M0 0 C0.66 0 1.32 0 2 0 C2 2.31 2 4.62 2 7 C1.01 7.33 0.02 7.66 -1 8 C-0.67 5.36 -0.34 2.72 0 0 Z " fill="#E9DDDC" transform="translate(592,519)"></path>
<path d="M0 0 C1.98362069 2.91708924 1.9876191 4.12380904 1.625 7.75 C1.41875 8.8225 1.2125 9.895 1 11 C-0.98362069 8.08291076 -0.9876191 6.87619096 -0.625 3.25 C-0.41875 2.1775 -0.2125 1.105 0 0 Z " fill="#EFEBE8" transform="translate(594,512)"></path>
<path d="M0 0 C0.268125 0.639375 0.53625 1.27875 0.8125 1.9375 C1.88667752 4.33131686 1.88667752 4.33131686 5 5 C2.69 5.33 0.38 5.66 -2 6 C-2 3 -2 3 0 0 Z " fill="#85242B" transform="translate(786,426)"></path>
<path d="M0 0 C1.4540625 0.0309375 1.4540625 0.0309375 2.9375 0.0625 C3.2675 1.0525 3.5975 2.0425 3.9375 3.0625 C1.0625 3.1875 1.0625 3.1875 -2.0625 3.0625 C-2.7225 2.4025 -3.3825 1.7425 -4.0625 1.0625 C-3.0625 0.0625 -3.0625 0.0625 0 0 Z " fill="#F1E6E1" transform="translate(682.0625,647.9375)"></path>
<path d="M0 0 C0.66 0 1.32 0 2 0 C3.32 2.31 4.64 4.62 6 7 C5.01 7.495 5.01 7.495 4 8 C4 7.34 4 6.68 4 6 C3.01 5.67 2.02 5.34 1 5 C0.67 3.35 0.34 1.7 0 0 Z " fill="#F2E8E6" transform="translate(765,642)"></path>
<path d="M0 0 C1.9375 0.8125 1.9375 0.8125 4 2 C4.33 2.99 4.66 3.98 5 5 C4.34 5 3.68 5 3 5 C3 5.66 3 6.32 3 7 C2.34 7 1.68 7 1 7 C0.67 4.69 0.34 2.38 0 0 Z " fill="#852029" transform="translate(454,632)"></path>
<path d="M0 0 C2.4375 0.8125 2.4375 0.8125 5 2 C5.33 2.99 5.66 3.98 6 5 C5.01 5.33 4.02 5.66 3 6 C0 2.25 0 2.25 0 0 Z " fill="#F0E8E6" transform="translate(761,623)"></path>
<path d="M0 0 C1 3 1 3 0.0625 5.1875 C-0.4634375 6.0846875 -0.4634375 6.0846875 -1 7 C-1.99 6.67 -2.98 6.34 -4 6 C-2.25 1.125 -2.25 1.125 0 0 Z " fill="#F1EBE8" transform="translate(191,561)"></path>
<path d="M0 0 C0.99 0 1.98 0 3 0 C3.33 2.31 3.66 4.62 4 7 C3.01 6.67 2.02 6.34 1 6 C0.67 4.02 0.34 2.04 0 0 Z " fill="#F1ECE9" transform="translate(804,544)"></path>
<path d="M0 0 C0 3.73120489 -1.18031476 5.78055689 -3 9 C-3.99 9.495 -3.99 9.495 -5 10 C-4.38545304 6.00544473 -2.29353263 3.25533664 0 0 Z " fill="#630F13" transform="translate(315,457)"></path>
</svg><style>@media (prefers-color-scheme: light) { :root { filter: none; } }
@media (prefers-color-scheme: dark) { :root { filter: none; } }
</style></svg>